<?xml version="1.0" encoding="utf-8"?>
<!DOCTYPE svg PUBLIC "-//W3C//DTD SVG 1.1//EN" "http://www.w3.org/Graphics/SVG/1.1/DTD/svg11.dtd">
<svg version="1.1" id="Layer_1" xmlns="http://www.w3.org/2000/svg" xmlns:xlink="http://www.w3.org/1999/xlink" x="0px" y="0px"
width="1160px" height="1160px" viewBox="0 0 1160 1160" enable-background="new 0 0 1160 1160" xml:space="preserve">
<rect x="0" y="0" width="1160" height="1160" fill="rgb(255,255,255)" /><g transform="translate(80,80)"><g transform="translate(360,0) scale(0.4,0.4)"><g transform="" style="fill: rgb(254, 3, 101);">
<polygon points="100,100 0,50 0,50 100,0 "/>
</g></g><g transform="translate(400,0) scale(0.4,0.4)"><g transform="" style="fill: rgb(254, 3, 101);">
<rect width="100" height="100"/>
</g></g><g transform="translate(440,0) scale(0.4,0.4)"><g transform="" style="fill: rgb(254, 3, 101);">
<rect width="100" height="100"/>
</g></g><g transform="translate(480,0) scale(0.4,0.4)"><g transform="" style="fill: rgb(254, 3, 101);">
<rect width="100" height="100"/>
</g></g><g transform="translate(520,0) scale(0.4,0.4)"><g transform="" style="fill: rgb(254, 3, 101);">
<g>
	<path d="M100,34.375c0-9.505-3.354-17.611-10.059-24.316S75.131,0,65.625,0H0v100h100V34.375z"/>
</g>
</g></g><g transform="translate(480,40) scale(0.4,0.4)"><g transform="" style="fill: rgb(254, 3, 101);">
<rect width="100" height="100"/>
</g></g><g transform="translate(520,40) scale(0.4,0.4)"><g transform="" style="fill: rgb(254, 3, 101);">
<rect width="100" height="100"/>
</g></g><g transform="translate(560,40) scale(0.4,0.4)"><g transform="" style="fill: rgb(254, 3, 101);">
<rect width="100" height="100"/>
</g></g><g transform="translate(600,40) scale(0.4,0.4)"><g transform="" style="fill: rgb(254, 3, 101);">
<rect width="100" height="100"/>
</g></g><g transform="translate(640,40) scale(0.4,0.4)"><g transform="" style="fill: rgb(254, 3, 101);">
<polygon points="0,100 100,50 100,50 0,0 "/>
</g></g><g transform="translate(320,80) scale(0.4,0.4)"><g transform="" style="fill: rgb(254, 3, 101);">
<g>
	<path d="M100,34.375V0H34.375C24.87,0,16.764,3.353,10.059,10.059S0,24.87,0,34.375V100h100V34.375z"/>
</g>
</g></g><g transform="translate(360,80) scale(0.4,0.4)"><g transform="" style="fill: rgb(254, 3, 101);">
<polygon points="0,100 100,50 100,50 0,0 "/>
</g></g><g transform="translate(440,80) scale(0.4,0.4)"><g transform="" style="fill: rgb(254, 3, 101);">
<polygon points="100,100 0,50 0,50 100,0 "/>
</g></g><g transform="translate(480,80) scale(0.4,0.4)"><g transform="" style="fill: rgb(254, 3, 101);">
<g>
	<path d="M100,0H0v100h65.625c9.506,0,17.611-3.354,24.316-10.059S100,75.131,100,65.625V0z"/>
</g>
</g></g><g transform="translate(320,120) scale(0.4,0.4)"><g transform="" style="fill: rgb(254, 3, 101);">
<rect width="100" height="100"/>
</g></g><g transform="translate(520,120) scale(0.4,0.4)"><g transform="" style="fill: rgb(254, 3, 101);">
<polygon points="100,100 0,50 0,50 100,0 "/>
</g></g><g transform="translate(560,120) scale(0.4,0.4)"><g transform="" style="fill: rgb(254, 3, 101);">
<polygon points="0,100 100,50 100,50 0,0 "/>
</g></g><g transform="translate(320,160) scale(0.4,0.4)"><g transform="" style="fill: rgb(254, 3, 101);">
<rect width="100" height="100"/>
</g></g><g transform="translate(360,160) scale(0.4,0.4)"><g transform="" style="fill: rgb(254, 3, 101);">
<polygon points="0,100 100,50 100,50 0,0 "/>
</g></g><g transform="translate(480,160) scale(0.4,0.4)"><g transform="" style="fill: rgb(254, 3, 101);">
<polygon points="100,100 50,0 50,0 0,100 "/>
</g></g><g transform="translate(640,160) scale(0.4,0.4)"><g transform="" style="fill: rgb(254, 3, 101);">
<polygon points="99.999,49.999 99.998,49.999 49.999,0 0,49.999 -0.001,49.999 -0.001,50 0,50 49.999,99.999 99.998,50 99.999,50 
	99.998,50 "/>
</g></g><g transform="translate(320,200) scale(0.4,0.4)"><g transform="" style="fill: rgb(254, 3, 101);">
<rect width="100" height="100"/>
</g></g><g transform="translate(400,200) scale(0.4,0.4)"><g transform="" style="fill: rgb(254, 3, 101);">
<polygon points="100,100 50,0 50,0 0,100 "/>
</g></g><g transform="translate(480,200) scale(0.4,0.4)"><g transform="" style="fill: rgb(254, 3, 101);">
<rect width="100" height="100"/>
</g></g><g transform="translate(560,200) scale(0.4,0.4)"><g transform="" style="fill: rgb(254, 3, 101);">
<g>
	<path d="M100,34.375V0H34.375C24.87,0,16.764,3.353,10.059,10.059S0,24.87,0,34.375V100h100V34.375z"/>
</g>
</g></g><g transform="translate(600,200) scale(0.4,0.4)"><g transform="" style="fill: rgb(254, 3, 101);">
<polygon points="0,100 100,50 100,50 0,0 "/>
</g></g><g transform="translate(320,240) scale(0.4,0.4)"><g transform="" style="fill: rgb(254, 3, 101);">
<rect width="100" height="100"/>
</g></g><g transform="translate(400,240) scale(0.4,0.4)"><g transform="" style="fill: rgb(254, 3, 101);">
<polygon points="0,-0.001 50,99.999 50,99.999 100,-0.001 "/>
</g></g><g transform="translate(480,240) scale(0.4,0.4)"><g transform="" style="fill: rgb(254, 3, 101);">
<rect width="100" height="100"/>
</g></g><g transform="translate(560,240) scale(0.4,0.4)"><g transform="" style="fill: rgb(254, 3, 101);">
<polygon points="0,-0.001 50,99.999 50,99.999 100,-0.001 "/>
</g></g><g transform="translate(640,240) scale(0.4,0.4)"><g transform="" style="fill: rgb(254, 3, 101);">
<polygon points="100,100 50,0 50,0 0,100 "/>
</g></g><g transform="translate(320,280) scale(0.4,0.4)"><g transform="" style="fill: rgb(254, 3, 101);">
<g>
	<path d="M100,0H0v65.625c0,9.506,3.353,17.611,10.059,24.316S24.87,100,34.375,100H100V0z"/>
</g>
</g></g><g transform="translate(360,280) scale(0.4,0.4)"><g transform="" style="fill: rgb(254, 3, 101);">
<g>
	<path d="M100,34.375c0-9.505-3.354-17.611-10.059-24.316S75.131,0,65.625,0H0v100h100V34.375z"/>
</g>
</g></g><g transform="translate(480,280) scale(0.4,0.4)"><g transform="" style="fill: rgb(254, 3, 101);">
<polygon points="0,-0.001 50,99.999 50,99.999 100,-0.001 "/>
</g></g><g transform="translate(640,280) scale(0.4,0.4)"><g transform="" style="fill: rgb(254, 3, 101);">
<polygon points="0,-0.001 50,99.999 50,99.999 100,-0.001 "/>
</g></g><g transform="translate(0,320) scale(0.4,0.4)"><g transform="" style="fill: rgb(254, 3, 101);">
<polygon points="99.999,49.999 99.998,49.999 49.999,0 0,49.999 -0.001,49.999 -0.001,50 0,50 49.999,99.999 99.998,50 99.999,50 
	99.998,50 "/>
</g></g><g transform="translate(80,320) scale(0.4,0.4)"><g transform="" style="fill: rgb(254, 3, 101);">
<g>
	<path d="M100,34.375V0H34.375C24.87,0,16.764,3.353,10.059,10.059S0,24.87,0,34.375V100h100V34.375z"/>
</g>
</g></g><g transform="translate(120,320) scale(0.4,0.4)"><g transform="" style="fill: rgb(254, 3, 101);">
<rect width="100" height="100"/>
</g></g><g transform="translate(160,320) scale(0.4,0.4)"><g transform="" style="fill: rgb(254, 3, 101);">
<rect width="100" height="100"/>
</g></g><g transform="translate(200,320) scale(0.4,0.4)"><g transform="" style="fill: rgb(254, 3, 101);">
<rect width="100" height="100"/>
</g></g><g transform="translate(240,320) scale(0.4,0.4)"><g transform="" style="fill: rgb(254, 3, 101);">
<polygon points="0,100 100,50 100,50 0,0 "/>
</g></g><g transform="translate(360,320) scale(0.4,0.4)"><g transform="" style="fill: rgb(254, 3, 101);">
<g>
	<path d="M100,0H0v65.625c0,9.506,3.353,17.611,10.059,24.316S24.87,100,34.375,100H100V0z"/>
</g>
</g></g><g transform="translate(400,320) scale(0.4,0.4)"><g transform="" style="fill: rgb(254, 3, 101);">
<g>
	<path d="M100,34.375c0-9.505-3.354-17.611-10.059-24.316S75.131,0,65.625,0H0v100h100V34.375z"/>
</g>
</g></g><g transform="translate(520,320) scale(0.4,0.4)"><g transform="" style="fill: rgb(254, 3, 101);">
<g>
	<path d="M100,34.375V0H34.375C24.87,0,16.764,3.353,10.059,10.059S0,24.87,0,34.375V100h100V34.375z"/>
</g>
</g></g><g transform="translate(560,320) scale(0.4,0.4)"><g transform="" style="fill: rgb(254, 3, 101);">
<polygon points="0,100 100,50 100,50 0,0 "/>
</g></g><g transform="translate(720,320) scale(0.4,0.4)"><g transform="" style="fill: rgb(254, 3, 101);">
<polygon points="100,100 0,50 0,50 100,0 "/>
</g></g><g transform="translate(760,320) scale(0.4,0.4)"><g transform="" style="fill: rgb(254, 3, 101);">
<rect width="100" height="100"/>
</g></g><g transform="translate(800,320) scale(0.4,0.4)"><g transform="" style="fill: rgb(254, 3, 101);">
<rect width="100" height="100"/>
</g></g><g transform="translate(840,320) scale(0.4,0.4)"><g transform="" style="fill: rgb(254, 3, 101);">
<rect width="100" height="100"/>
</g></g><g transform="translate(880,320) scale(0.4,0.4)"><g transform="" style="fill: rgb(254, 3, 101);">
<polygon points="0,100 100,50 100,50 0,0 "/>
</g></g><g transform="translate(40,360) scale(0.4,0.4)"><g transform="" style="fill: rgb(254, 3, 101);">
<polygon points="100,100 0,50 0,50 100,0 "/>
</g></g><g transform="translate(80,360) scale(0.4,0.4)"><g transform="" style="fill: rgb(254, 3, 101);">
<g>
	<path d="M100,0H0v100h65.625c9.506,0,17.611-3.354,24.316-10.059S100,75.131,100,65.625V0z"/>
</g>
</g></g><g transform="translate(200,360) scale(0.4,0.4)"><g transform="" style="fill: rgb(254, 3, 101);">
<rect width="100" height="100"/>
</g></g><g transform="translate(280,360) scale(0.4,0.4)"><g transform="" style="fill: rgb(254, 3, 101);">
<polygon points="100,100 50,0 50,0 0,100 "/>
</g></g><g transform="translate(400,360) scale(0.4,0.4)"><g transform="" style="fill: rgb(254, 3, 101);">
<rect width="100" height="100"/>
</g></g><g transform="translate(520,360) scale(0.4,0.4)"><g transform="" style="fill: rgb(254, 3, 101);">
<polygon points="0,-0.001 50,99.999 50,99.999 100,-0.001 "/>
</g></g><g transform="translate(640,360) scale(0.4,0.4)"><g transform="" style="fill: rgb(254, 3, 101);">
<g>
	<path d="M100,34.375V0H34.375C24.87,0,16.764,3.353,10.059,10.059S0,24.87,0,34.375V100h100V34.375z"/>
</g>
</g></g><g transform="translate(680,360) scale(0.4,0.4)"><g transform="" style="fill: rgb(254, 3, 101);">
<g>
	<path d="M100,34.375c0-9.505-3.354-17.611-10.059-24.316S75.131,0,65.625,0H0v100h100V34.375z"/>
</g>
</g></g><g transform="translate(760,360) scale(0.4,0.4)"><g transform="" style="fill: rgb(254, 3, 101);">
<rect width="100" height="100"/>
</g></g><g transform="translate(920,360) scale(0.4,0.4)"><g transform="" style="fill: rgb(254, 3, 101);">
<polygon points="100,100 50,0 50,0 0,100 "/>
</g></g><g transform="translate(0,400) scale(0.4,0.4)"><g transform="" style="fill: rgb(254, 3, 101);">
<polygon points="99.999,49.999 99.998,49.999 49.999,0 0,49.999 -0.001,49.999 -0.001,50 0,50 49.999,99.999 99.998,50 99.999,50 
	99.998,50 "/>
</g></g><g transform="translate(200,400) scale(0.4,0.4)"><g transform="" style="fill: rgb(254, 3, 101);">
<g>
	<path d="M100,0H0v65.625c0,9.506,3.353,17.611,10.059,24.316S24.87,100,34.375,100H100V0z"/>
</g>
</g></g><g transform="translate(240,400) scale(0.4,0.4)"><g transform="" style="fill: rgb(254, 3, 101);">
<rect width="100" height="100"/>
</g></g><g transform="translate(280,400) scale(0.4,0.4)"><g transform="" style="fill: rgb(254, 3, 101);">
<rect width="100" height="100"/>
</g></g><g transform="translate(320,400) scale(0.4,0.4)"><g transform="" style="fill: rgb(254, 3, 101);">
<g>
	<path d="M100,34.375c0-9.505-3.354-17.611-10.059-24.316S75.131,0,65.625,0H0v100h100V34.375z"/>
</g>
</g></g><g transform="translate(400,400) scale(0.4,0.4)"><g transform="" style="fill: rgb(254, 3, 101);">
<rect width="100" height="100"/>
</g></g><g transform="translate(440,400) scale(0.4,0.4)"><g transform="" style="fill: rgb(254, 3, 101);">
<g>
	<path d="M100,34.375c0-9.505-3.354-17.611-10.059-24.316S75.131,0,65.625,0H0v100h100V34.375z"/>
</g>
</g></g><g transform="translate(600,400) scale(0.4,0.4)"><g transform="" style="fill: rgb(254, 3, 101);">
<g>
	<path d="M100,34.375V0H34.375C24.87,0,16.764,3.353,10.059,10.059S0,24.87,0,34.375V100h100V34.375z"/>
</g>
</g></g><g transform="translate(640,400) scale(0.4,0.4)"><g transform="" style="fill: rgb(254, 3, 101);">
<rect width="100" height="100"/>
</g></g><g transform="translate(680,400) scale(0.4,0.4)"><g transform="" style="fill: rgb(254, 3, 101);">
<rect width="100" height="100"/>
</g></g><g transform="translate(720,400) scale(0.4,0.4)"><g transform="" style="fill: rgb(254, 3, 101);">
<rect width="100" height="100"/>
</g></g><g transform="translate(760,400) scale(0.4,0.4)"><g transform="" style="fill: rgb(254, 3, 101);">
<rect width="100" height="100"/>
</g></g><g transform="translate(800,400) scale(0.4,0.4)"><g transform="" style="fill: rgb(254, 3, 101);">
<rect width="100" height="100"/>
</g></g><g transform="translate(840,400) scale(0.4,0.4)"><g transform="" style="fill: rgb(254, 3, 101);">
<polygon points="0,100 100,50 100,50 0,0 "/>
</g></g><g transform="translate(920,400) scale(0.4,0.4)"><g transform="" style="fill: rgb(254, 3, 101);">
<g>
	<path d="M100,0H0v65.625c0,9.506,3.353,17.611,10.059,24.316S24.87,100,34.375,100H100V0z"/>
</g>
</g></g><g transform="translate(960,400) scale(0.4,0.4)"><g transform="" style="fill: rgb(254, 3, 101);">
<g>
	<path d="M100,34.375c0-9.505-3.354-17.611-10.059-24.316S75.131,0,65.625,0H0v100h100V34.375z"/>
</g>
</g></g><g transform="translate(40,440) scale(0.4,0.4)"><g transform="" style="fill: rgb(254, 3, 101);">
<polygon points="100,100 50,0 50,0 0,100 "/>
</g></g><g transform="translate(120,440) scale(0.4,0.4)"><g transform="" style="fill: rgb(254, 3, 101);">
<polygon points="100,100 50,0 50,0 0,100 "/>
</g></g><g transform="translate(280,440) scale(0.4,0.4)"><g transform="" style="fill: rgb(254, 3, 101);">
<g>
	<path d="M100,0H0v65.625c0,9.506,3.353,17.611,10.059,24.316S24.87,100,34.375,100H100V0z"/>
</g>
</g></g><g transform="translate(320,440) scale(0.4,0.4)"><g transform="" style="fill: rgb(254, 3, 101);">
<rect width="100" height="100"/>
</g></g><g transform="translate(360,440) scale(0.4,0.4)"><g transform="" style="fill: rgb(254, 3, 101);">
<rect width="100" height="100"/>
</g></g><g transform="translate(400,440) scale(0.4,0.4)"><g transform="" style="fill: rgb(254, 3, 101);">
<rect width="100" height="100"/>
</g></g><g transform="translate(440,440) scale(0.4,0.4)"><g transform="" style="fill: rgb(254, 3, 101);">
<g>
	<path d="M100,0H0v100h65.625c9.506,0,17.611-3.354,24.316-10.059S100,75.131,100,65.625V0z"/>
</g>
</g></g><g transform="translate(560,440) scale(0.4,0.4)"><g transform="" style="fill: rgb(254, 3, 101);">
<g>
	<path d="M100,34.375V0H34.375C24.87,0,16.764,3.353,10.059,10.059S0,24.87,0,34.375V100h100V34.375z"/>
</g>
</g></g><g transform="translate(600,440) scale(0.4,0.4)"><g transform="" style="fill: rgb(254, 3, 101);">
<rect width="100" height="100"/>
</g></g><g transform="translate(680,440) scale(0.4,0.4)"><g transform="" style="fill: rgb(254, 3, 101);">
<rect width="100" height="100"/>
</g></g><g transform="translate(760,440) scale(0.4,0.4)"><g transform="" style="fill: rgb(254, 3, 101);">
<rect width="100" height="100"/>
</g></g><g transform="translate(960,440) scale(0.4,0.4)"><g transform="" style="fill: rgb(254, 3, 101);">
<rect width="100" height="100"/>
</g></g><g transform="translate(0,480) scale(0.4,0.4)"><g transform="" style="fill: rgb(254, 3, 101);">
<g>
	<path d="M100,34.375V0H34.375C24.87,0,16.764,3.353,10.059,10.059S0,24.87,0,34.375V100h100V34.375z"/>
</g>
</g></g><g transform="translate(40,480) scale(0.4,0.4)"><g transform="" style="fill: rgb(254, 3, 101);">
<rect width="100" height="100"/>
</g></g><g transform="translate(80,480) scale(0.4,0.4)"><g transform="" style="fill: rgb(254, 3, 101);">
<rect width="100" height="100"/>
</g></g><g transform="translate(120,480) scale(0.4,0.4)"><g transform="" style="fill: rgb(254, 3, 101);">
<rect width="100" height="100"/>
</g></g><g transform="translate(160,480) scale(0.4,0.4)"><g transform="" style="fill: rgb(254, 3, 101);">
<rect width="100" height="100"/>
</g></g><g transform="translate(200,480) scale(0.4,0.4)"><g transform="" style="fill: rgb(254, 3, 101);">
<rect width="100" height="100"/>
</g></g><g transform="translate(240,480) scale(0.4,0.4)"><g transform="" style="fill: rgb(254, 3, 101);">
<polygon points="0,100 100,50 100,50 0,0 "/>
</g></g><g transform="translate(320,480) scale(0.4,0.4)"><g transform="" style="fill: rgb(254, 3, 101);">
<rect width="100" height="100"/>
</g></g><g transform="translate(400,480) scale(0.4,0.4)"><g transform="" style="fill: rgb(254, 3, 101);">
<rect width="100" height="100"/>
</g></g><g transform="translate(480,480) scale(0.4,0.4)"><g transform="" style="fill: rgb(254, 3, 101);">
<g>
	<path d="M100,34.375V0H34.375C24.87,0,16.764,3.353,10.059,10.059S0,24.87,0,34.375V100h100V34.375z"/>
</g>
</g></g><g transform="translate(520,480) scale(0.4,0.4)"><g transform="" style="fill: rgb(254, 3, 101);">
<rect width="100" height="100"/>
</g></g><g transform="translate(560,480) scale(0.4,0.4)"><g transform="" style="fill: rgb(254, 3, 101);">
<rect width="100" height="100"/>
</g></g><g transform="translate(600,480) scale(0.4,0.4)"><g transform="" style="fill: rgb(254, 3, 101);">
<g>
	<path d="M100,0H0v100h65.625c9.506,0,17.611-3.354,24.316-10.059S100,75.131,100,65.625V0z"/>
</g>
</g></g><g transform="translate(680,480) scale(0.4,0.4)"><g transform="" style="fill: rgb(254, 3, 101);">
<rect width="100" height="100"/>
</g></g><g transform="translate(720,480) scale(0.4,0.4)"><g transform="" style="fill: rgb(254, 3, 101);">
<rect width="100" height="100"/>
</g></g><g transform="translate(760,480) scale(0.4,0.4)"><g transform="" style="fill: rgb(254, 3, 101);">
<rect width="100" height="100"/>
</g></g><g transform="translate(800,480) scale(0.4,0.4)"><g transform="" style="fill: rgb(254, 3, 101);">
<polygon points="0,100 100,50 100,50 0,0 "/>
</g></g><g transform="translate(880,480) scale(0.4,0.4)"><g transform="" style="fill: rgb(254, 3, 101);">
<polygon points="100,100 0,50 0,50 100,0 "/>
</g></g><g transform="translate(920,480) scale(0.4,0.4)"><g transform="" style="fill: rgb(254, 3, 101);">
<rect width="100" height="100"/>
</g></g><g transform="translate(960,480) scale(0.4,0.4)"><g transform="" style="fill: rgb(254, 3, 101);">
<g>
	<path d="M100,0H0v100h65.625c9.506,0,17.611-3.354,24.316-10.059S100,75.131,100,65.625V0z"/>
</g>
</g></g><g transform="translate(0,520) scale(0.4,0.4)"><g transform="" style="fill: rgb(254, 3, 101);">
<rect width="100" height="100"/>
</g></g><g transform="translate(80,520) scale(0.4,0.4)"><g transform="" style="fill: rgb(254, 3, 101);">
<g>
	<path d="M100,0H0v65.625c0,9.506,3.353,17.611,10.059,24.316S24.87,100,34.375,100H100V0z"/>
</g>
</g></g><g transform="translate(120,520) scale(0.4,0.4)"><g transform="" style="fill: rgb(254, 3, 101);">
<rect width="100" height="100"/>
</g></g><g transform="translate(160,520) scale(0.4,0.4)"><g transform="" style="fill: rgb(254, 3, 101);">
<rect width="100" height="100"/>
</g></g><g transform="translate(320,520) scale(0.4,0.4)"><g transform="" style="fill: rgb(254, 3, 101);">
<rect width="100" height="100"/>
</g></g><g transform="translate(360,520) scale(0.4,0.4)"><g transform="" style="fill: rgb(254, 3, 101);">
<rect width="100" height="100"/>
</g></g><g transform="translate(400,520) scale(0.4,0.4)"><g transform="" style="fill: rgb(254, 3, 101);">
<rect width="100" height="100"/>
</g></g><g transform="translate(480,520) scale(0.4,0.4)"><g transform="" style="fill: rgb(254, 3, 101);">
<polygon points="0,-0.001 50,99.999 50,99.999 100,-0.001 "/>
</g></g><g transform="translate(640,520) scale(0.4,0.4)"><g transform="" style="fill: rgb(254, 3, 101);">
<polygon points="100,100 0,50 0,50 100,0 "/>
</g></g><g transform="translate(680,520) scale(0.4,0.4)"><g transform="" style="fill: rgb(254, 3, 101);">
<rect width="100" height="100"/>
</g></g><g transform="translate(760,520) scale(0.4,0.4)"><g transform="" style="fill: rgb(254, 3, 101);">
<rect width="100" height="100"/>
</g></g><g transform="translate(840,520) scale(0.4,0.4)"><g transform="" style="fill: rgb(254, 3, 101);">
<polygon points="100,100 50,0 50,0 0,100 "/>
</g></g><g transform="translate(920,520) scale(0.4,0.4)"><g transform="" style="fill: rgb(254, 3, 101);">
<rect width="100" height="100"/>
</g></g><g transform="translate(0,560) scale(0.4,0.4)"><g transform="" style="fill: rgb(254, 3, 101);">
<rect width="100" height="100"/>
</g></g><g transform="translate(160,560) scale(0.4,0.4)"><g transform="" style="fill: rgb(254, 3, 101);">
<rect width="100" height="100"/>
</g></g><g transform="translate(240,560) scale(0.4,0.4)"><g transform="" style="fill: rgb(254, 3, 101);">
<polygon points="99.999,49.999 99.998,49.999 49.999,0 0,49.999 -0.001,49.999 -0.001,50 0,50 49.999,99.999 99.998,50 99.999,50 
	99.998,50 "/>
</g></g><g transform="translate(320,560) scale(0.4,0.4)"><g transform="" style="fill: rgb(254, 3, 101);">
<polygon points="0,-0.001 50,99.999 50,99.999 100,-0.001 "/>
</g></g><g transform="translate(400,560) scale(0.4,0.4)"><g transform="" style="fill: rgb(254, 3, 101);">
<polygon points="0,-0.001 50,99.999 50,99.999 100,-0.001 "/>
</g></g><g transform="translate(520,560) scale(0.4,0.4)"><g transform="" style="fill: rgb(254, 3, 101);">
<polygon points="100,100 0,50 0,50 100,0 "/>
</g></g><g transform="translate(560,560) scale(0.4,0.4)"><g transform="" style="fill: rgb(254, 3, 101);">
<rect width="100" height="100"/>
</g></g><g transform="translate(600,560) scale(0.4,0.4)"><g transform="" style="fill: rgb(254, 3, 101);">
<g>
	<path d="M100,34.375c0-9.505-3.354-17.611-10.059-24.316S75.131,0,65.625,0H0v100h100V34.375z"/>
</g>
</g></g><g transform="translate(680,560) scale(0.4,0.4)"><g transform="" style="fill: rgb(254, 3, 101);">
<rect width="100" height="100"/>
</g></g><g transform="translate(720,560) scale(0.4,0.4)"><g transform="" style="fill: rgb(254, 3, 101);">
<rect width="100" height="100"/>
</g></g><g transform="translate(760,560) scale(0.4,0.4)"><g transform="" style="fill: rgb(254, 3, 101);">
<rect width="100" height="100"/>
</g></g><g transform="translate(800,560) scale(0.4,0.4)"><g transform="" style="fill: rgb(254, 3, 101);">
<rect width="100" height="100"/>
</g></g><g transform="translate(840,560) scale(0.4,0.4)"><g transform="" style="fill: rgb(254, 3, 101);">
<g>
	<path d="M100,0H0v100h65.625c9.506,0,17.611-3.354,24.316-10.059S100,75.131,100,65.625V0z"/>
</g>
</g></g><g transform="translate(920,560) scale(0.4,0.4)"><g transform="" style="fill: rgb(254, 3, 101);">
<g>
	<path d="M100,0H0v65.625c0,9.506,3.353,17.611,10.059,24.316S24.87,100,34.375,100H100V0z"/>
</g>
</g></g><g transform="translate(960,560) scale(0.4,0.4)"><g transform="" style="fill: rgb(254, 3, 101);">
<g>
	<path d="M100,34.375c0-9.505-3.354-17.611-10.059-24.316S75.131,0,65.625,0H0v100h100V34.375z"/>
</g>
</g></g><g transform="translate(0,600) scale(0.4,0.4)"><g transform="" style="fill: rgb(254, 3, 101);">
<rect width="100" height="100"/>
</g></g><g transform="translate(80,600) scale(0.4,0.4)"><g transform="" style="fill: rgb(254, 3, 101);">
<polygon points="100,100 0,50 0,50 100,0 "/>
</g></g><g transform="translate(120,600) scale(0.4,0.4)"><g transform="" style="fill: rgb(254, 3, 101);">
<rect width="100" height="100"/>
</g></g><g transform="translate(160,600) scale(0.4,0.4)"><g transform="" style="fill: rgb(254, 3, 101);">
<g>
	<path d="M100,0H0v100h65.625c9.506,0,17.611-3.354,24.316-10.059S100,75.131,100,65.625V0z"/>
</g>
</g></g><g transform="translate(440,600) scale(0.4,0.4)"><g transform="" style="fill: rgb(254, 3, 101);">
<polygon points="100,100 50,0 50,0 0,100 "/>
</g></g><g transform="translate(560,600) scale(0.4,0.4)"><g transform="" style="fill: rgb(254, 3, 101);">
<rect width="100" height="100"/>
</g></g><g transform="translate(600,600) scale(0.4,0.4)"><g transform="" style="fill: rgb(254, 3, 101);">
<rect width="100" height="100"/>
</g></g><g transform="translate(640,600) scale(0.4,0.4)"><g transform="" style="fill: rgb(254, 3, 101);">
<rect width="100" height="100"/>
</g></g><g transform="translate(680,600) scale(0.4,0.4)"><g transform="" style="fill: rgb(254, 3, 101);">
<rect width="100" height="100"/>
</g></g><g transform="translate(760,600) scale(0.4,0.4)"><g transform="" style="fill: rgb(254, 3, 101);">
<rect width="100" height="100"/>
</g></g><g transform="translate(800,600) scale(0.4,0.4)"><g transform="" style="fill: rgb(254, 3, 101);">
<rect width="100" height="100"/>
</g></g><g transform="translate(960,600) scale(0.4,0.4)"><g transform="" style="fill: rgb(254, 3, 101);">
<polygon points="0,-0.001 50,99.999 50,99.999 100,-0.001 "/>
</g></g><g transform="translate(0,640) scale(0.4,0.4)"><g transform="" style="fill: rgb(254, 3, 101);">
<polygon points="0,-0.001 50,99.999 50,99.999 100,-0.001 "/>
</g></g><g transform="translate(120,640) scale(0.4,0.4)"><g transform="" style="fill: rgb(254, 3, 101);">
<polygon points="0,-0.001 50,99.999 50,99.999 100,-0.001 "/>
</g></g><g transform="translate(200,640) scale(0.4,0.4)"><g transform="" style="fill: rgb(254, 3, 101);">
<polygon points="100,100 0,50 0,50 100,0 "/>
</g></g><g transform="translate(240,640) scale(0.4,0.4)"><g transform="" style="fill: rgb(254, 3, 101);">
<rect width="100" height="100"/>
</g></g><g transform="translate(280,640) scale(0.4,0.4)"><g transform="" style="fill: rgb(254, 3, 101);">
<rect width="100" height="100"/>
</g></g><g transform="translate(320,640) scale(0.4,0.4)"><g transform="" style="fill: rgb(254, 3, 101);">
<g>
	<path d="M100,34.375c0-9.505-3.354-17.611-10.059-24.316S75.131,0,65.625,0H0v100h100V34.375z"/>
</g>
</g></g><g transform="translate(440,640) scale(0.4,0.4)"><g transform="" style="fill: rgb(254, 3, 101);">
<rect width="100" height="100"/>
</g></g><g transform="translate(480,640) scale(0.4,0.4)"><g transform="" style="fill: rgb(254, 3, 101);">
<rect width="100" height="100"/>
</g></g><g transform="translate(520,640) scale(0.4,0.4)"><g transform="" style="fill: rgb(254, 3, 101);">
<rect width="100" height="100"/>
</g></g><g transform="translate(560,640) scale(0.4,0.4)"><g transform="" style="fill: rgb(254, 3, 101);">
<g>
	<path d="M100,0H0v100h65.625c9.506,0,17.611-3.354,24.316-10.059S100,75.131,100,65.625V0z"/>
</g>
</g></g><g transform="translate(640,640) scale(0.4,0.4)"><g transform="" style="fill: rgb(254, 3, 101);">
<rect width="100" height="100"/>
</g></g><g transform="translate(680,640) scale(0.4,0.4)"><g transform="" style="fill: rgb(254, 3, 101);">
<rect width="100" height="100"/>
</g></g><g transform="translate(720,640) scale(0.4,0.4)"><g transform="" style="fill: rgb(254, 3, 101);">
<rect width="100" height="100"/>
</g></g><g transform="translate(760,640) scale(0.4,0.4)"><g transform="" style="fill: rgb(254, 3, 101);">
<rect width="100" height="100"/>
</g></g><g transform="translate(800,640) scale(0.4,0.4)"><g transform="" style="fill: rgb(254, 3, 101);">
<rect width="100" height="100"/>
</g></g><g transform="translate(880,640) scale(0.4,0.4)"><g transform="" style="fill: rgb(254, 3, 101);">
<polygon points="99.999,49.999 99.998,49.999 49.999,0 0,49.999 -0.001,49.999 -0.001,50 0,50 49.999,99.999 99.998,50 99.999,50 
	99.998,50 "/>
</g></g><g transform="translate(320,680) scale(0.4,0.4)"><g transform="" style="fill: rgb(254, 3, 101);">
<polygon points="0,-0.001 50,99.999 50,99.999 100,-0.001 "/>
</g></g><g transform="translate(400,680) scale(0.4,0.4)"><g transform="" style="fill: rgb(254, 3, 101);">
<g>
	<path d="M100,34.375V0H34.375C24.87,0,16.764,3.353,10.059,10.059S0,24.87,0,34.375V100h100V34.375z"/>
</g>
</g></g><g transform="translate(440,680) scale(0.4,0.4)"><g transform="" style="fill: rgb(254, 3, 101);">
<rect width="100" height="100"/>
</g></g><g transform="translate(480,680) scale(0.4,0.4)"><g transform="" style="fill: rgb(254, 3, 101);">
<rect width="100" height="100"/>
</g></g><g transform="translate(520,680) scale(0.4,0.4)"><g transform="" style="fill: rgb(254, 3, 101);">
<g>
	<path d="M100,0H0v100h65.625c9.506,0,17.611-3.354,24.316-10.059S100,75.131,100,65.625V0z"/>
</g>
</g></g><g transform="translate(600,680) scale(0.4,0.4)"><g transform="" style="fill: rgb(254, 3, 101);">
<polygon points="100,100 0,50 0,50 100,0 "/>
</g></g><g transform="translate(640,680) scale(0.4,0.4)"><g transform="" style="fill: rgb(254, 3, 101);">
<rect width="100" height="100"/>
</g></g><g transform="translate(800,680) scale(0.4,0.4)"><g transform="" style="fill: rgb(254, 3, 101);">
<rect width="100" height="100"/>
</g></g><g transform="translate(840,680) scale(0.4,0.4)"><g transform="" style="fill: rgb(254, 3, 101);">
<polygon points="0,100 100,50 100,50 0,0 "/>
</g></g><g transform="translate(360,720) scale(0.4,0.4)"><g transform="" style="fill: rgb(254, 3, 101);">
<polygon points="100,100 0,50 0,50 100,0 "/>
</g></g><g transform="translate(400,720) scale(0.4,0.4)"><g transform="" style="fill: rgb(254, 3, 101);">
<g>
	<path d="M100,0H0v100h65.625c9.506,0,17.611-3.354,24.316-10.059S100,75.131,100,65.625V0z"/>
</g>
</g></g><g transform="translate(480,720) scale(0.4,0.4)"><g transform="" style="fill: rgb(254, 3, 101);">
<polygon points="0,-0.001 50,99.999 50,99.999 100,-0.001 "/>
</g></g><g transform="translate(640,720) scale(0.4,0.4)"><g transform="" style="fill: rgb(254, 3, 101);">
<rect width="100" height="100"/>
</g></g><g transform="translate(720,720) scale(0.4,0.4)"><g transform="" style="fill: rgb(254, 3, 101);">
<polygon points="99.999,49.999 99.998,49.999 49.999,0 0,49.999 -0.001,49.999 -0.001,50 0,50 49.999,99.999 99.998,50 99.999,50 
	99.998,50 "/>
</g></g><g transform="translate(800,720) scale(0.4,0.4)"><g transform="" style="fill: rgb(254, 3, 101);">
<rect width="100" height="100"/>
</g></g><g transform="translate(880,720) scale(0.4,0.4)"><g transform="" style="fill: rgb(254, 3, 101);">
<polygon points="100,100 0,50 0,50 100,0 "/>
</g></g><g transform="translate(920,720) scale(0.4,0.4)"><g transform="" style="fill: rgb(254, 3, 101);">
<rect width="100" height="100"/>
</g></g><g transform="translate(960,720) scale(0.4,0.4)"><g transform="" style="fill: rgb(254, 3, 101);">
<polygon points="0,100 100,50 100,50 0,0 "/>
</g></g><g transform="translate(320,760) scale(0.4,0.4)"><g transform="" style="fill: rgb(254, 3, 101);">
<polygon points="100,100 50,0 50,0 0,100 "/>
</g></g><g transform="translate(560,760) scale(0.4,0.4)"><g transform="" style="fill: rgb(254, 3, 101);">
<polygon points="100,100 50,0 50,0 0,100 "/>
</g></g><g transform="translate(640,760) scale(0.4,0.4)"><g transform="" style="fill: rgb(254, 3, 101);">
<rect width="100" height="100"/>
</g></g><g transform="translate(800,760) scale(0.4,0.4)"><g transform="" style="fill: rgb(254, 3, 101);">
<rect width="100" height="100"/>
</g></g><g transform="translate(840,760) scale(0.4,0.4)"><g transform="" style="fill: rgb(254, 3, 101);">
<polygon points="0,100 100,50 100,50 0,0 "/>
</g></g><g transform="translate(320,800) scale(0.4,0.4)"><g transform="" style="fill: rgb(254, 3, 101);">
<rect width="100" height="100"/>
</g></g><g transform="translate(360,800) scale(0.4,0.4)"><g transform="" style="fill: rgb(254, 3, 101);">
<g>
	<path d="M100,34.375c0-9.505-3.354-17.611-10.059-24.316S75.131,0,65.625,0H0v100h100V34.375z"/>
</g>
</g></g><g transform="translate(440,800) scale(0.4,0.4)"><g transform="" style="fill: rgb(254, 3, 101);">
<g>
	<path d="M100,34.375V0H34.375C24.87,0,16.764,3.353,10.059,10.059S0,24.87,0,34.375V100h100V34.375z"/>
</g>
</g></g><g transform="translate(480,800) scale(0.4,0.4)"><g transform="" style="fill: rgb(254, 3, 101);">
<rect width="100" height="100"/>
</g></g><g transform="translate(520,800) scale(0.4,0.4)"><g transform="" style="fill: rgb(254, 3, 101);">
<rect width="100" height="100"/>
</g></g><g transform="translate(560,800) scale(0.4,0.4)"><g transform="" style="fill: rgb(254, 3, 101);">
<rect width="100" height="100"/>
</g></g><g transform="translate(600,800) scale(0.4,0.4)"><g transform="" style="fill: rgb(254, 3, 101);">
<rect width="100" height="100"/>
</g></g><g transform="translate(640,800) scale(0.4,0.4)"><g transform="" style="fill: rgb(254, 3, 101);">
<rect width="100" height="100"/>
</g></g><g transform="translate(680,800) scale(0.4,0.4)"><g transform="" style="fill: rgb(254, 3, 101);">
<rect width="100" height="100"/>
</g></g><g transform="translate(720,800) scale(0.4,0.4)"><g transform="" style="fill: rgb(254, 3, 101);">
<rect width="100" height="100"/>
</g></g><g transform="translate(760,800) scale(0.4,0.4)"><g transform="" style="fill: rgb(254, 3, 101);">
<rect width="100" height="100"/>
</g></g><g transform="translate(800,800) scale(0.4,0.4)"><g transform="" style="fill: rgb(254, 3, 101);">
<rect width="100" height="100"/>
</g></g><g transform="translate(880,800) scale(0.4,0.4)"><g transform="" style="fill: rgb(254, 3, 101);">
<polygon points="100,100 50,0 50,0 0,100 "/>
</g></g><g transform="translate(320,840) scale(0.4,0.4)"><g transform="" style="fill: rgb(254, 3, 101);">
<rect width="100" height="100"/>
</g></g><g transform="translate(360,840) scale(0.4,0.4)"><g transform="" style="fill: rgb(254, 3, 101);">
<rect width="100" height="100"/>
</g></g><g transform="translate(440,840) scale(0.4,0.4)"><g transform="" style="fill: rgb(254, 3, 101);">
<polygon points="0,-0.001 50,99.999 50,99.999 100,-0.001 "/>
</g></g><g transform="translate(560,840) scale(0.4,0.4)"><g transform="" style="fill: rgb(254, 3, 101);">
<rect width="100" height="100"/>
</g></g><g transform="translate(600,840) scale(0.4,0.4)"><g transform="" style="fill: rgb(254, 3, 101);">
<rect width="100" height="100"/>
</g></g><g transform="translate(640,840) scale(0.4,0.4)"><g transform="" style="fill: rgb(254, 3, 101);">
<g>
	<path d="M100,0H0v100h65.625c9.506,0,17.611-3.354,24.316-10.059S100,75.131,100,65.625V0z"/>
</g>
</g></g><g transform="translate(720,840) scale(0.4,0.4)"><g transform="" style="fill: rgb(254, 3, 101);">
<polygon points="0,-0.001 50,99.999 50,99.999 100,-0.001 "/>
</g></g><g transform="translate(800,840) scale(0.4,0.4)"><g transform="" style="fill: rgb(254, 3, 101);">
<g>
	<path d="M100,0H0v65.625c0,9.506,3.353,17.611,10.059,24.316S24.87,100,34.375,100H100V0z"/>
</g>
</g></g><g transform="translate(840,840) scale(0.4,0.4)"><g transform="" style="fill: rgb(254, 3, 101);">
<rect width="100" height="100"/>
</g></g><g transform="translate(880,840) scale(0.4,0.4)"><g transform="" style="fill: rgb(254, 3, 101);">
<rect width="100" height="100"/>
</g></g><g transform="translate(920,840) scale(0.4,0.4)"><g transform="" style="fill: rgb(254, 3, 101);">
<rect width="100" height="100"/>
</g></g><g transform="translate(960,840) scale(0.4,0.4)"><g transform="" style="fill: rgb(254, 3, 101);">
<g>
	<path d="M100,34.375c0-9.505-3.354-17.611-10.059-24.316S75.131,0,65.625,0H0v100h100V34.375z"/>
</g>
</g></g><g transform="translate(320,880) scale(0.4,0.4)"><g transform="" style="fill: rgb(254, 3, 101);">
<g>
	<path d="M100,0H0v65.625c0,9.506,3.353,17.611,10.059,24.316S24.87,100,34.375,100H100V0z"/>
</g>
</g></g><g transform="translate(360,880) scale(0.4,0.4)"><g transform="" style="fill: rgb(254, 3, 101);">
<rect width="100" height="100"/>
</g></g><g transform="translate(400,880) scale(0.4,0.4)"><g transform="" style="fill: rgb(254, 3, 101);">
<polygon points="0,100 100,50 100,50 0,0 "/>
</g></g><g transform="translate(560,880) scale(0.4,0.4)"><g transform="" style="fill: rgb(254, 3, 101);">
<polygon points="0,-0.001 50,99.999 50,99.999 100,-0.001 "/>
</g></g><g transform="translate(840,880) scale(0.4,0.4)"><g transform="" style="fill: rgb(254, 3, 101);">
<rect width="100" height="100"/>
</g></g><g transform="translate(880,880) scale(0.4,0.4)"><g transform="" style="fill: rgb(254, 3, 101);">
<g>
	<path d="M100,0H0v100h65.625c9.506,0,17.611-3.354,24.316-10.059S100,75.131,100,65.625V0z"/>
</g>
</g></g><g transform="translate(960,880) scale(0.4,0.4)"><g transform="" style="fill: rgb(254, 3, 101);">
<rect width="100" height="100"/>
</g></g><g transform="translate(360,920) scale(0.4,0.4)"><g transform="" style="fill: rgb(254, 3, 101);">
<rect width="100" height="100"/>
</g></g><g transform="translate(480,920) scale(0.4,0.4)"><g transform="" style="fill: rgb(254, 3, 101);">
<polygon points="100,100 50,0 50,0 0,100 "/>
</g></g><g transform="translate(600,920) scale(0.4,0.4)"><g transform="" style="fill: rgb(254, 3, 101);">
<polygon points="100,100 0,50 0,50 100,0 "/>
</g></g><g transform="translate(640,920) scale(0.4,0.4)"><g transform="" style="fill: rgb(254, 3, 101);">
<rect width="100" height="100"/>
</g></g><g transform="translate(680,920) scale(0.4,0.4)"><g transform="" style="fill: rgb(254, 3, 101);">
<polygon points="0,100 100,50 100,50 0,0 "/>
</g></g><g transform="translate(760,920) scale(0.4,0.4)"><g transform="" style="fill: rgb(254, 3, 101);">
<g>
	<path d="M100,34.375V0H34.375C24.87,0,16.764,3.353,10.059,10.059S0,24.87,0,34.375V100h100V34.375z"/>
</g>
</g></g><g transform="translate(800,920) scale(0.4,0.4)"><g transform="" style="fill: rgb(254, 3, 101);">
<rect width="100" height="100"/>
</g></g><g transform="translate(840,920) scale(0.4,0.4)"><g transform="" style="fill: rgb(254, 3, 101);">
<rect width="100" height="100"/>
</g></g><g transform="translate(960,920) scale(0.4,0.4)"><g transform="" style="fill: rgb(254, 3, 101);">
<rect width="100" height="100"/>
</g></g><g transform="translate(320,960) scale(0.4,0.4)"><g transform="" style="fill: rgb(254, 3, 101);">
<polygon points="100,100 0,50 0,50 100,0 "/>
</g></g><g transform="translate(360,960) scale(0.4,0.4)"><g transform="" style="fill: rgb(254, 3, 101);">
<g>
	<path d="M100,0H0v100h65.625c9.506,0,17.611-3.354,24.316-10.059S100,75.131,100,65.625V0z"/>
</g>
</g></g><g transform="translate(480,960) scale(0.4,0.4)"><g transform="" style="fill: rgb(254, 3, 101);">
<g>
	<path d="M100,0H0v65.625c0,9.506,3.353,17.611,10.059,24.316S24.87,100,34.375,100H100V0z"/>
</g>
</g></g><g transform="translate(520,960) scale(0.4,0.4)"><g transform="" style="fill: rgb(254, 3, 101);">
<rect width="100" height="100"/>
</g></g><g transform="translate(560,960) scale(0.4,0.4)"><g transform="" style="fill: rgb(254, 3, 101);">
<polygon points="0,100 100,50 100,50 0,0 "/>
</g></g><g transform="translate(760,960) scale(0.4,0.4)"><g transform="" style="fill: rgb(254, 3, 101);">
<g>
	<path d="M100,0H0v65.625c0,9.506,3.353,17.611,10.059,24.316S24.87,100,34.375,100H100V0z"/>
</g>
</g></g><g transform="translate(800,960) scale(0.4,0.4)"><g transform="" style="fill: rgb(254, 3, 101);">
<rect width="100" height="100"/>
</g></g><g transform="translate(840,960) scale(0.4,0.4)"><g transform="" style="fill: rgb(254, 3, 101);">
<rect width="100" height="100"/>
</g></g><g transform="translate(880,960) scale(0.4,0.4)"><g transform="" style="fill: rgb(254, 3, 101);">
<rect width="100" height="100"/>
</g></g><g transform="translate(920,960) scale(0.4,0.4)"><g transform="" style="fill: rgb(254, 3, 101);">
<rect width="100" height="100"/>
</g></g><g transform="translate(960,960) scale(0.4,0.4)"><g transform="" style="fill: rgb(254, 3, 101);">
<g>
	<path d="M100,0H0v100h65.625c9.506,0,17.611-3.354,24.316-10.059S100,75.131,100,65.625V0z"/>
</g>
</g></g><g transform="translate(0,0) scale(2.7722772277228, 2.7722772277228)"><g transform="" style="fill: rgb(254, 3, 101);">
<g>
	<path style="fill:none;" d="M90.055,71.25C87.113,70.234,85,67.451,85,64.166s2.113-6.066,5.052-7.084
		C87.113,56.066,85,53.283,85,50c0-3.284,2.113-6.068,5.052-7.083C87.113,41.899,85,39.117,85,35.833s2.113-6.067,5.052-7.083
		C87.113,27.733,85,24.951,85,21.667s2.113-6.068,5.053-7.083c-2.171-0.75-3.886-2.464-4.636-4.635C84.4,12.887,81.618,15,78.334,15
		c-3.285,0-6.068-2.114-7.084-5.055C70.234,12.886,67.451,15,64.166,15c-3.284,0-6.066-2.113-7.083-5.051
		C56.066,12.887,53.284,15,50,15s-6.068-2.113-7.083-5.052C41.9,12.887,39.117,15,35.833,15s-6.067-2.113-7.083-5.051
		C27.734,12.887,24.951,15,21.667,15s-6.068-2.114-7.083-5.054c-0.75,2.172-2.465,3.887-4.636,4.637
		c2.938,1.016,5.052,3.8,5.052,7.084s-2.114,6.066-5.052,7.083C12.887,29.766,15,32.549,15,35.833s-2.113,6.066-5.052,7.083
		C12.887,43.932,15,46.715,15,50s-2.113,6.068-5.051,7.082C12.887,58.1,15,60.881,15,64.166s-2.115,6.068-5.055,7.084
		C12.886,72.266,15,75.049,15,78.334c0,3.283-2.114,6.066-5.052,7.082c2.17,0.75,3.885,2.465,4.635,4.635
		c1.016-2.938,3.8-5.051,7.084-5.051s6.067,2.113,7.083,5.051C29.766,87.113,32.549,85,35.833,85s6.067,2.113,7.083,5.051
		C43.932,87.113,46.715,85,50,85s6.068,2.113,7.083,5.051C58.1,87.113,60.882,85,64.166,85c3.285,0,6.068,2.113,7.084,5.055
		C72.266,87.113,75.049,85,78.334,85c3.284,0,6.066,2.113,7.083,5.051c0.75-2.17,2.465-3.885,4.635-4.635
		C87.113,84.4,85,81.617,85,78.334C85,75.049,87.113,72.266,90.055,71.25z"/>
	<path d="M100,21.667c0-3.284-2.113-6.068-5.053-7.083C97.887,13.567,100,10.784,100,7.5c0-4.144-3.357-7.5-7.5-7.5
		c-3.284,0-6.066,2.112-7.083,5.051C84.4,2.112,81.618,0,78.334,0c-3.285,0-6.068,2.114-7.084,5.054C70.234,2.114,67.451,0,64.166,0
		c-3.284,0-6.066,2.112-7.083,5.051C56.066,2.112,53.284,0,50,0s-6.068,2.112-7.083,5.052C41.9,2.112,39.117,0,35.833,0
		s-6.067,2.112-7.083,5.051C27.734,2.112,24.951,0,21.667,0s-6.068,2.114-7.083,5.053C13.568,2.114,10.784,0,7.5,0
		C3.357,0,0,3.356,0,7.5c0,3.284,2.114,6.067,5.053,7.083C2.114,15.599,0,18.383,0,21.667s2.113,6.066,5.051,7.083
		C2.113,29.766,0,32.549,0,35.833s2.113,6.066,5.052,7.083C2.113,43.932,0,46.715,0,50s2.113,6.068,5.051,7.082
		C2.113,58.1,0,60.881,0,64.166s2.114,6.068,5.054,7.084C2.114,72.266,0,75.049,0,78.334c0,3.283,2.113,6.066,5.051,7.082
		C2.113,86.434,0,89.215,0,92.5c0,4.143,3.357,7.5,7.5,7.5c0.518,0,1.023-0.053,1.512-0.152c2.608-0.533,4.716-2.426,5.572-4.898
		c1.015,2.938,3.799,5.051,7.083,5.051s6.067-2.111,7.083-5.051c1.016,2.938,3.799,5.051,7.083,5.051s6.067-2.111,7.083-5.051
		C43.932,97.887,46.715,100,50,100s6.068-2.113,7.083-5.053C58.1,97.885,60.882,100,64.166,100c3.285,0,6.068-2.115,7.084-5.055
		c1.016,2.939,3.799,5.055,7.084,5.055c3.284,0,6.066-2.113,7.083-5.053C86.434,97.887,89.216,100,92.5,100
		c4.143,0,7.5-3.357,7.5-7.5c0-3.285-2.113-6.066-5.052-7.084C97.887,84.4,100,81.617,100,78.334c0-3.285-2.113-6.068-5.055-7.084
		c2.939-1.016,5.055-3.799,5.055-7.084s-2.113-6.066-5.052-7.084C97.887,56.066,100,53.283,100,50c0-3.284-2.113-6.068-5.052-7.083
		c2.938-1.018,5.052-3.8,5.052-7.084s-2.113-6.067-5.052-7.083C97.887,27.733,100,24.951,100,21.667z M90.052,85.416
		c-2.17,0.75-3.885,2.465-4.635,4.635C84.4,87.113,81.618,85,78.334,85c-3.285,0-6.068,2.113-7.084,5.055
		C70.234,87.113,67.451,85,64.166,85c-3.284,0-6.066,2.113-7.083,5.051C56.066,87.113,53.284,85,50,85s-6.068,2.113-7.083,5.051
		C41.9,87.113,39.117,85,35.833,85s-6.067,2.113-7.083,5.051C27.734,87.113,24.951,85,21.667,85s-6.068,2.113-7.083,5.051
		c-0.75-2.17-2.465-3.885-4.635-4.635C12.887,84.4,15,81.617,15,78.334c0-3.285-2.115-6.068-5.055-7.084
		C12.886,70.234,15,67.451,15,64.166s-2.114-6.066-5.052-7.084C12.887,56.066,15,53.283,15,50c0-3.284-2.113-6.068-5.052-7.083
		c2.939-1.018,5.052-3.8,5.052-7.084s-2.113-6.067-5.051-7.083C12.887,27.733,15,24.951,15,21.667s-2.114-6.068-5.053-7.083
		c2.171-0.75,3.886-2.465,4.636-4.636c1.016,2.938,3.8,5.052,7.084,5.052s6.067-2.113,7.083-5.051
		C29.766,12.887,32.549,15,35.833,15s6.067-2.113,7.083-5.052C43.932,12.887,46.715,15,50,15s6.068-2.113,7.083-5.051
		C58.1,12.887,60.882,15,64.166,15c3.285,0,6.068-2.114,7.084-5.055C72.266,12.886,75.049,15,78.334,15
		c3.284,0,6.066-2.113,7.083-5.051c0.75,2.17,2.465,3.885,4.636,4.635C87.113,15.599,85,18.383,85,21.667s2.113,6.066,5.052,7.083
		C87.113,29.766,85,32.549,85,35.833s2.113,6.066,5.052,7.083C87.113,43.932,85,46.715,85,50s2.113,6.068,5.052,7.082
		C87.113,58.1,85,60.881,85,64.166s2.113,6.068,5.055,7.084C87.113,72.266,85,75.049,85,78.334C85,81.617,87.113,84.4,90.052,85.416
		z"/>
</g>
</g></g><g transform="translate(720,0) scale(2.7722772277228, 2.7722772277228)"><g transform="" style="fill: rgb(254, 3, 101);">
<g>
	<path style="fill:none;" d="M90.055,71.25C87.113,70.234,85,67.451,85,64.166s2.113-6.066,5.052-7.084
		C87.113,56.066,85,53.283,85,50c0-3.284,2.113-6.068,5.052-7.083C87.113,41.899,85,39.117,85,35.833s2.113-6.067,5.052-7.083
		C87.113,27.733,85,24.951,85,21.667s2.113-6.068,5.053-7.083c-2.171-0.75-3.886-2.464-4.636-4.635C84.4,12.887,81.618,15,78.334,15
		c-3.285,0-6.068-2.114-7.084-5.055C70.234,12.886,67.451,15,64.166,15c-3.284,0-6.066-2.113-7.083-5.051
		C56.066,12.887,53.284,15,50,15s-6.068-2.113-7.083-5.052C41.9,12.887,39.117,15,35.833,15s-6.067-2.113-7.083-5.051
		C27.734,12.887,24.951,15,21.667,15s-6.068-2.114-7.083-5.054c-0.75,2.172-2.465,3.887-4.636,4.637
		c2.938,1.016,5.052,3.8,5.052,7.084s-2.114,6.066-5.052,7.083C12.887,29.766,15,32.549,15,35.833s-2.113,6.066-5.052,7.083
		C12.887,43.932,15,46.715,15,50s-2.113,6.068-5.051,7.082C12.887,58.1,15,60.881,15,64.166s-2.115,6.068-5.055,7.084
		C12.886,72.266,15,75.049,15,78.334c0,3.283-2.114,6.066-5.052,7.082c2.17,0.75,3.885,2.465,4.635,4.635
		c1.016-2.938,3.8-5.051,7.084-5.051s6.067,2.113,7.083,5.051C29.766,87.113,32.549,85,35.833,85s6.067,2.113,7.083,5.051
		C43.932,87.113,46.715,85,50,85s6.068,2.113,7.083,5.051C58.1,87.113,60.882,85,64.166,85c3.285,0,6.068,2.113,7.084,5.055
		C72.266,87.113,75.049,85,78.334,85c3.284,0,6.066,2.113,7.083,5.051c0.75-2.17,2.465-3.885,4.635-4.635
		C87.113,84.4,85,81.617,85,78.334C85,75.049,87.113,72.266,90.055,71.25z"/>
	<path d="M100,21.667c0-3.284-2.113-6.068-5.053-7.083C97.887,13.567,100,10.784,100,7.5c0-4.144-3.357-7.5-7.5-7.5
		c-3.284,0-6.066,2.112-7.083,5.051C84.4,2.112,81.618,0,78.334,0c-3.285,0-6.068,2.114-7.084,5.054C70.234,2.114,67.451,0,64.166,0
		c-3.284,0-6.066,2.112-7.083,5.051C56.066,2.112,53.284,0,50,0s-6.068,2.112-7.083,5.052C41.9,2.112,39.117,0,35.833,0
		s-6.067,2.112-7.083,5.051C27.734,2.112,24.951,0,21.667,0s-6.068,2.114-7.083,5.053C13.568,2.114,10.784,0,7.5,0
		C3.357,0,0,3.356,0,7.5c0,3.284,2.114,6.067,5.053,7.083C2.114,15.599,0,18.383,0,21.667s2.113,6.066,5.051,7.083
		C2.113,29.766,0,32.549,0,35.833s2.113,6.066,5.052,7.083C2.113,43.932,0,46.715,0,50s2.113,6.068,5.051,7.082
		C2.113,58.1,0,60.881,0,64.166s2.114,6.068,5.054,7.084C2.114,72.266,0,75.049,0,78.334c0,3.283,2.113,6.066,5.051,7.082
		C2.113,86.434,0,89.215,0,92.5c0,4.143,3.357,7.5,7.5,7.5c0.518,0,1.023-0.053,1.512-0.152c2.608-0.533,4.716-2.426,5.572-4.898
		c1.015,2.938,3.799,5.051,7.083,5.051s6.067-2.111,7.083-5.051c1.016,2.938,3.799,5.051,7.083,5.051s6.067-2.111,7.083-5.051
		C43.932,97.887,46.715,100,50,100s6.068-2.113,7.083-5.053C58.1,97.885,60.882,100,64.166,100c3.285,0,6.068-2.115,7.084-5.055
		c1.016,2.939,3.799,5.055,7.084,5.055c3.284,0,6.066-2.113,7.083-5.053C86.434,97.887,89.216,100,92.5,100
		c4.143,0,7.5-3.357,7.5-7.5c0-3.285-2.113-6.066-5.052-7.084C97.887,84.4,100,81.617,100,78.334c0-3.285-2.113-6.068-5.055-7.084
		c2.939-1.016,5.055-3.799,5.055-7.084s-2.113-6.066-5.052-7.084C97.887,56.066,100,53.283,100,50c0-3.284-2.113-6.068-5.052-7.083
		c2.938-1.018,5.052-3.8,5.052-7.084s-2.113-6.067-5.052-7.083C97.887,27.733,100,24.951,100,21.667z M90.052,85.416
		c-2.17,0.75-3.885,2.465-4.635,4.635C84.4,87.113,81.618,85,78.334,85c-3.285,0-6.068,2.113-7.084,5.055
		C70.234,87.113,67.451,85,64.166,85c-3.284,0-6.066,2.113-7.083,5.051C56.066,87.113,53.284,85,50,85s-6.068,2.113-7.083,5.051
		C41.9,87.113,39.117,85,35.833,85s-6.067,2.113-7.083,5.051C27.734,87.113,24.951,85,21.667,85s-6.068,2.113-7.083,5.051
		c-0.75-2.17-2.465-3.885-4.635-4.635C12.887,84.4,15,81.617,15,78.334c0-3.285-2.115-6.068-5.055-7.084
		C12.886,70.234,15,67.451,15,64.166s-2.114-6.066-5.052-7.084C12.887,56.066,15,53.283,15,50c0-3.284-2.113-6.068-5.052-7.083
		c2.939-1.018,5.052-3.8,5.052-7.084s-2.113-6.067-5.051-7.083C12.887,27.733,15,24.951,15,21.667s-2.114-6.068-5.053-7.083
		c2.171-0.75,3.886-2.465,4.636-4.636c1.016,2.938,3.8,5.052,7.084,5.052s6.067-2.113,7.083-5.051
		C29.766,12.887,32.549,15,35.833,15s6.067-2.113,7.083-5.052C43.932,12.887,46.715,15,50,15s6.068-2.113,7.083-5.051
		C58.1,12.887,60.882,15,64.166,15c3.285,0,6.068-2.114,7.084-5.055C72.266,12.886,75.049,15,78.334,15
		c3.284,0,6.066-2.113,7.083-5.051c0.75,2.17,2.465,3.885,4.636,4.635C87.113,15.599,85,18.383,85,21.667s2.113,6.066,5.052,7.083
		C87.113,29.766,85,32.549,85,35.833s2.113,6.066,5.052,7.083C87.113,43.932,85,46.715,85,50s2.113,6.068,5.052,7.082
		C87.113,58.1,85,60.881,85,64.166s2.113,6.068,5.055,7.084C87.113,72.266,85,75.049,85,78.334C85,81.617,87.113,84.4,90.052,85.416
		z"/>
</g>
</g></g><g transform="translate(0,720) scale(2.7722772277228, 2.7722772277228)"><g transform="" style="fill: rgb(254, 3, 101);">
<g>
	<path style="fill:none;" d="M90.055,71.25C87.113,70.234,85,67.451,85,64.166s2.113-6.066,5.052-7.084
		C87.113,56.066,85,53.283,85,50c0-3.284,2.113-6.068,5.052-7.083C87.113,41.899,85,39.117,85,35.833s2.113-6.067,5.052-7.083
		C87.113,27.733,85,24.951,85,21.667s2.113-6.068,5.053-7.083c-2.171-0.75-3.886-2.464-4.636-4.635C84.4,12.887,81.618,15,78.334,15
		c-3.285,0-6.068-2.114-7.084-5.055C70.234,12.886,67.451,15,64.166,15c-3.284,0-6.066-2.113-7.083-5.051
		C56.066,12.887,53.284,15,50,15s-6.068-2.113-7.083-5.052C41.9,12.887,39.117,15,35.833,15s-6.067-2.113-7.083-5.051
		C27.734,12.887,24.951,15,21.667,15s-6.068-2.114-7.083-5.054c-0.75,2.172-2.465,3.887-4.636,4.637
		c2.938,1.016,5.052,3.8,5.052,7.084s-2.114,6.066-5.052,7.083C12.887,29.766,15,32.549,15,35.833s-2.113,6.066-5.052,7.083
		C12.887,43.932,15,46.715,15,50s-2.113,6.068-5.051,7.082C12.887,58.1,15,60.881,15,64.166s-2.115,6.068-5.055,7.084
		C12.886,72.266,15,75.049,15,78.334c0,3.283-2.114,6.066-5.052,7.082c2.17,0.75,3.885,2.465,4.635,4.635
		c1.016-2.938,3.8-5.051,7.084-5.051s6.067,2.113,7.083,5.051C29.766,87.113,32.549,85,35.833,85s6.067,2.113,7.083,5.051
		C43.932,87.113,46.715,85,50,85s6.068,2.113,7.083,5.051C58.1,87.113,60.882,85,64.166,85c3.285,0,6.068,2.113,7.084,5.055
		C72.266,87.113,75.049,85,78.334,85c3.284,0,6.066,2.113,7.083,5.051c0.75-2.17,2.465-3.885,4.635-4.635
		C87.113,84.4,85,81.617,85,78.334C85,75.049,87.113,72.266,90.055,71.25z"/>
	<path d="M100,21.667c0-3.284-2.113-6.068-5.053-7.083C97.887,13.567,100,10.784,100,7.5c0-4.144-3.357-7.5-7.5-7.5
		c-3.284,0-6.066,2.112-7.083,5.051C84.4,2.112,81.618,0,78.334,0c-3.285,0-6.068,2.114-7.084,5.054C70.234,2.114,67.451,0,64.166,0
		c-3.284,0-6.066,2.112-7.083,5.051C56.066,2.112,53.284,0,50,0s-6.068,2.112-7.083,5.052C41.9,2.112,39.117,0,35.833,0
		s-6.067,2.112-7.083,5.051C27.734,2.112,24.951,0,21.667,0s-6.068,2.114-7.083,5.053C13.568,2.114,10.784,0,7.5,0
		C3.357,0,0,3.356,0,7.5c0,3.284,2.114,6.067,5.053,7.083C2.114,15.599,0,18.383,0,21.667s2.113,6.066,5.051,7.083
		C2.113,29.766,0,32.549,0,35.833s2.113,6.066,5.052,7.083C2.113,43.932,0,46.715,0,50s2.113,6.068,5.051,7.082
		C2.113,58.1,0,60.881,0,64.166s2.114,6.068,5.054,7.084C2.114,72.266,0,75.049,0,78.334c0,3.283,2.113,6.066,5.051,7.082
		C2.113,86.434,0,89.215,0,92.5c0,4.143,3.357,7.5,7.5,7.5c0.518,0,1.023-0.053,1.512-0.152c2.608-0.533,4.716-2.426,5.572-4.898
		c1.015,2.938,3.799,5.051,7.083,5.051s6.067-2.111,7.083-5.051c1.016,2.938,3.799,5.051,7.083,5.051s6.067-2.111,7.083-5.051
		C43.932,97.887,46.715,100,50,100s6.068-2.113,7.083-5.053C58.1,97.885,60.882,100,64.166,100c3.285,0,6.068-2.115,7.084-5.055
		c1.016,2.939,3.799,5.055,7.084,5.055c3.284,0,6.066-2.113,7.083-5.053C86.434,97.887,89.216,100,92.5,100
		c4.143,0,7.5-3.357,7.5-7.5c0-3.285-2.113-6.066-5.052-7.084C97.887,84.4,100,81.617,100,78.334c0-3.285-2.113-6.068-5.055-7.084
		c2.939-1.016,5.055-3.799,5.055-7.084s-2.113-6.066-5.052-7.084C97.887,56.066,100,53.283,100,50c0-3.284-2.113-6.068-5.052-7.083
		c2.938-1.018,5.052-3.8,5.052-7.084s-2.113-6.067-5.052-7.083C97.887,27.733,100,24.951,100,21.667z M90.052,85.416
		c-2.17,0.75-3.885,2.465-4.635,4.635C84.4,87.113,81.618,85,78.334,85c-3.285,0-6.068,2.113-7.084,5.055
		C70.234,87.113,67.451,85,64.166,85c-3.284,0-6.066,2.113-7.083,5.051C56.066,87.113,53.284,85,50,85s-6.068,2.113-7.083,5.051
		C41.9,87.113,39.117,85,35.833,85s-6.067,2.113-7.083,5.051C27.734,87.113,24.951,85,21.667,85s-6.068,2.113-7.083,5.051
		c-0.75-2.17-2.465-3.885-4.635-4.635C12.887,84.4,15,81.617,15,78.334c0-3.285-2.115-6.068-5.055-7.084
		C12.886,70.234,15,67.451,15,64.166s-2.114-6.066-5.052-7.084C12.887,56.066,15,53.283,15,50c0-3.284-2.113-6.068-5.052-7.083
		c2.939-1.018,5.052-3.8,5.052-7.084s-2.113-6.067-5.051-7.083C12.887,27.733,15,24.951,15,21.667s-2.114-6.068-5.053-7.083
		c2.171-0.75,3.886-2.465,4.636-4.636c1.016,2.938,3.8,5.052,7.084,5.052s6.067-2.113,7.083-5.051
		C29.766,12.887,32.549,15,35.833,15s6.067-2.113,7.083-5.052C43.932,12.887,46.715,15,50,15s6.068-2.113,7.083-5.051
		C58.1,12.887,60.882,15,64.166,15c3.285,0,6.068-2.114,7.084-5.055C72.266,12.886,75.049,15,78.334,15
		c3.284,0,6.066-2.113,7.083-5.051c0.75,2.17,2.465,3.885,4.636,4.635C87.113,15.599,85,18.383,85,21.667s2.113,6.066,5.052,7.083
		C87.113,29.766,85,32.549,85,35.833s2.113,6.066,5.052,7.083C87.113,43.932,85,46.715,85,50s2.113,6.068,5.052,7.082
		C87.113,58.1,85,60.881,85,64.166s2.113,6.068,5.055,7.084C87.113,72.266,85,75.049,85,78.334C85,81.617,87.113,84.4,90.052,85.416
		z"/>
</g>
</g></g><g transform="translate(80,80) scale(1.2, 1.2)"><g transform=" translate(0,100) scale(1,-1) " style="fill: rgb(254, 3, 101);">
<path d="M100.061,99.984V0h-100l0.028,72.369C0.088,87.602,12.27,100,27.226,100h45.528c4.682,0,11.508,0,17.171-0.016
	C95.574,99.984,100.061,99.984,100.061,99.984z"/>
</g></g><g transform="translate(800,80) scale(1.2, 1.2)"><g transform=" translate(0,100) scale(1,-1)  translate(100, 0) scale(-1,1) " style="fill: rgb(254, 3, 101);">
<path d="M100.061,99.984V0h-100l0.028,72.369C0.088,87.602,12.27,100,27.226,100h45.528c4.682,0,11.508,0,17.171-0.016
	C95.574,99.984,100.061,99.984,100.061,99.984z"/>
</g></g><g transform="translate(80,800) scale(1.2, 1.2)"><g transform="" style="fill: rgb(254, 3, 101);">
<path d="M100.061,99.984V0h-100l0.028,72.369C0.088,87.602,12.27,100,27.226,100h45.528c4.682,0,11.508,0,17.171-0.016
	C95.574,99.984,100.061,99.984,100.061,99.984z"/>
</g></g></g></svg>