<svg xmlns="http://www.w3.org/2000/svg" width="1160" height="1160"><path fill="#FFF" d="M0 0h1160v1160H0z"/><path d="M480 120l-40-20 40-20zm0-40h40v40h-40zm40 0h40v40h-40zm40 0h40v40h-40zm80 13.75c0-3.802-1.342-7.044-4.024-9.726S630.052 80 626.25 80H600v40h40V93.75zM560 120h40v40h-40zm40 0h40v40h-40zm40 0h40v40h-40zm40 0h40v40h-40zm40 40l40-20-40-20zm-280 13.75V160h-26.25c-3.802 0-7.044 1.341-9.726 4.024S400 169.948 400 173.75V200h40v-26.25zm0 26.25l40-20-40-20zm120 0l-40-20 40-20zm40-40h-40v40h26.25c3.802 0 7.044-1.342 9.726-4.024S600 190.052 600 186.25V160zm-200 40h40v40h-40zm240 40l-40-20 40-20zm0 0l40-20-40-20zm-240 0h40v40h-40zm40 40l40-20-40-20zm160 0l-20-40-20 40zm160-20l-20-20-20 20 20 20 20-20zm-360 20h40v40h-40zm120 40l-20-40-20 40zm40-40h40v40h-40zm120 13.75V280h-26.25c-3.802 0-7.044 1.341-9.726 4.024S640 289.948 640 293.75V320h40v-26.25zm0 26.25l40-20-40-20zm-280 0h40v40h-40zm80 0l20 40 20-40zm80 0h40v40h-40zm80 0l20 40 20-40zm120 40l-20-40-20 40zm-320 0h-40v26.25c0 3.802 1.341 7.044 4.024 9.726S409.948 400 413.75 400H440v-40zm40 13.75c0-3.802-1.342-7.044-4.024-9.726S470.052 360 466.25 360H440v40h40v-26.25zM560 360l20 40 20-40zm160 0l20 40 20-40zm-600 60l-20-20-20 20 20 20 20-20zm80-6.25V400h-26.25c-3.802 0-7.044 1.341-9.726 4.024S160 409.948 160 413.75V440h40v-26.25zm0-13.75h40v40h-40zm40 0h40v40h-40zm40 0h40v40h-40zm40 40l40-20-40-20zm160-40h-40v26.25c0 3.802 1.341 7.044 4.024 9.726S449.948 440 453.75 440H480v-40zm40 13.75c0-3.802-1.342-7.044-4.024-9.726S510.052 400 506.25 400H480v40h40v-26.25zm120 0V400h-26.25c-3.802 0-7.044 1.341-9.726 4.024S600 409.948 600 413.75V440h40v-26.25zm0 26.25l40-20-40-20zm200 0l-40-20 40-20zm0-40h40v40h-40zm40 0h40v40h-40zm40 0h40v40h-40zm40 40l40-20-40-20zm-800 40l-40-20 40-20zm40-40h-40v40h26.25c3.802 0 7.044-1.342 9.726-4.024S200 470.052 200 466.25V440zm80 0h40v40h-40zm120 40l-20-40-20 40zm80-40h40v40h-40zm120 0l20 40 20-40zm160 13.75V440h-26.25c-3.802 0-7.044 1.341-9.726 4.024S720 449.948 720 453.75V480h40v-26.25zm40 0c0-3.802-1.342-7.044-4.024-9.726S790.052 440 786.25 440H760v40h40v-26.25zM840 440h40v40h-40zm200 40l-20-40-20 40zm-920 20l-20-20-20 20 20 20 20-20zm200-20h-40v26.25c0 3.802 1.341 7.044 4.024 9.726S289.948 520 293.75 520H320v-40zm0 0h40v40h-40zm40 0h40v40h-40zm80 13.75c0-3.802-1.342-7.044-4.024-9.726S430.052 480 426.25 480H400v40h40v-26.25zM480 480h40v40h-40zm80 13.75c0-3.802-1.342-7.044-4.024-9.726S550.052 480 546.25 480H520v40h40v-26.25zm160 0V480h-26.25c-3.802 0-7.044 1.341-9.726 4.024S680 489.948 680 493.75V520h40v-26.25zm0-13.75h40v40h-40zm40 0h40v40h-40zm40 0h40v40h-40zm40 0h40v40h-40zm40 0h40v40h-40zm40 40l40-20-40-20zm120-40h-40v26.25c0 3.802 1.341 7.044 4.024 9.726s5.924 4.024 9.726 4.024H1040v-40zm40 13.75c0-3.802-1.342-7.044-4.024-9.726s-5.924-4.024-9.726-4.024H1040v40h40v-26.25zM160 560l-20-40-20 40zm80 0l-20-40-20 40zm160-40h-40v26.25c0 3.802 1.341 7.044 4.024 9.726S369.948 560 373.75 560H400v-40zm0 0h40v40h-40zm40 0h40v40h-40zm40 0h40v40h-40zm80 0h-40v40h26.25c3.802 0 7.044-1.342 9.726-4.024S560 550.052 560 546.25V520zm120 13.75V520h-26.25c-3.802 0-7.044 1.341-9.726 4.024S640 529.948 640 533.75V560h40v-26.25zm0-13.75h40v40h-40zm80 0h40v40h-40zm80 0h40v40h-40zm200 0h40v40h-40zm-920 53.75V560H93.75c-3.802 0-7.044 1.341-9.726 4.024S80 569.948 80 573.75V600h40v-26.25zm0-13.75h40v40h-40zm40 0h40v40h-40zm40 0h40v40h-40zm40 0h40v40h-40zm40 0h40v40h-40zm40 40l40-20-40-20zm80-40h40v40h-40zm80 0h40v40h-40zm120 13.75V560h-26.25c-3.802 0-7.044 1.341-9.726 4.024S560 569.948 560 573.75V600h40v-26.25zm0-13.75h40v40h-40zm40 0h40v40h-40zm80 0h-40v40h26.25c3.802 0 7.044-1.342 9.726-4.024S720 590.052 720 586.25V560zm40 0h40v40h-40zm40 0h40v40h-40zm40 0h40v40h-40zm40 40l40-20-40-20zm120 0l-40-20 40-20zm0-40h40v40h-40zm80 0h-40v40h26.25c3.802 0 7.044-1.342 9.726-4.024s4.024-5.924 4.024-9.726V560zM80 600h40v40H80zm120 0h-40v26.25c0 3.802 1.341 7.044 4.024 9.726S169.948 640 173.75 640H200v-40zm0 0h40v40h-40zm40 0h40v40h-40zm160 0h40v40h-40zm40 0h40v40h-40zm40 0h40v40h-40zm80 0l20 40 20-40zm200 40l-40-20 40-20zm0-40h40v40h-40zm80 0h40v40h-40zm120 40l-20-40-20 40zm40-40h40v40h-40zM80 640h40v40H80zm160 0h40v40h-40zm120 20l-20-20-20 20 20 20 20-20zm40-20l20 40 20-40zm80 0l20 40 20-40zm160 40l-40-20 40-20zm0-40h40v40h-40zm80 13.75c0-3.802-1.342-7.044-4.024-9.726S710.052 640 706.25 640H680v40h40v-26.25zM760 640h40v40h-40zm40 0h40v40h-40zm40 0h40v40h-40zm40 0h40v40h-40zm80 0h-40v40h26.25c3.802 0 7.044-1.342 9.726-4.024S960 670.052 960 666.25V640zm80 0h-40v26.25c0 3.802 1.341 7.044 4.024 9.726s5.924 4.024 9.726 4.024H1040v-40zm40 13.75c0-3.802-1.342-7.044-4.024-9.726s-5.924-4.024-9.726-4.024H1040v40h40v-26.25zM80 680h40v40H80zm120 40l-40-20 40-20zm0-40h40v40h-40zm80 0h-40v40h26.25c3.802 0 7.044-1.342 9.726-4.024S280 710.052 280 706.25V680zm280 40l-20-40-20 40zm80-40h40v40h-40zm40 0h40v40h-40zm40 0h40v40h-40zm40 0h40v40h-40zm80 0h40v40h-40zm40 0h40v40h-40zm160 0l20 40 20-40zM80 720l20 40 20-40zm120 0l20 40 20-40zm120 40l-40-20 40-20zm0-40h40v40h-40zm40 0h40v40h-40zm80 13.75c0-3.802-1.342-7.044-4.024-9.726S430.052 720 426.25 720H400v40h40v-26.25zM520 720h40v40h-40zm40 0h40v40h-40zm40 0h40v40h-40zm80 0h-40v40h26.25c3.802 0 7.044-1.342 9.726-4.024S680 750.052 680 746.25V720zm40 0h40v40h-40zm40 0h40v40h-40zm40 0h40v40h-40zm40 0h40v40h-40zm40 0h40v40h-40zm120 20l-20-20-20 20 20 20 20-20zm-600 20l20 40 20-40zm120 13.75V760h-26.25c-3.802 0-7.044 1.341-9.726 4.024S480 769.948 480 773.75V800h40v-26.25zm0-13.75h40v40h-40zm40 0h40v40h-40zm80 0h-40v40h26.25c3.802 0 7.044-1.342 9.726-4.024S640 790.052 640 786.25V760zm80 40l-40-20 40-20zm0-40h40v40h-40zm160 0h40v40h-40zm40 40l40-20-40-20zm-440 40l-40-20 40-20zm40-40h-40v40h26.25c3.802 0 7.044-1.342 9.726-4.024S520 830.052 520 826.25V800zm40 0l20 40 20-40zm160 0h40v40h-40zm120 20l-20-20-20 20 20 20 20-20zm40-20h40v40h-40zm120 40l-40-20 40-20zm0-40h40v40h-40zm40 40l40-20-40-20zm-600 40l-20-40-20 40zm240 0l-20-40-20 40zm40-40h40v40h-40zm160 0h40v40h-40zm40 40l40-20-40-20zm-520 0h40v40h-40zm80 13.75c0-3.802-1.342-7.044-4.024-9.726S470.052 880 466.25 880H440v40h40v-26.25zm80 0V880h-26.25c-3.802 0-7.044 1.341-9.726 4.024S520 889.948 520 893.75V920h40v-26.25zm0-13.75h40v40h-40zm40 0h40v40h-40zm40 0h40v40h-40zm40 0h40v40h-40zm40 0h40v40h-40zm40 0h40v40h-40zm40 0h40v40h-40zm40 0h40v40h-40zm40 0h40v40h-40zm120 40l-20-40-20 40zm-600 0h40v40h-40zm40 0h40v40h-40zm80 0l20 40 20-40zm120 0h40v40h-40zm40 0h40v40h-40zm80 0h-40v40h26.25c3.802 0 7.044-1.342 9.726-4.024S760 950.052 760 946.25V920zm40 0l20 40 20-40zm120 0h-40v26.25c0 3.802 1.341 7.044 4.024 9.726S889.948 960 893.75 960H920v-40zm0 0h40v40h-40zm40 0h40v40h-40zm40 0h40v40h-40zm80 13.75c0-3.802-1.342-7.044-4.024-9.726s-5.924-4.024-9.726-4.024H1040v40h40v-26.25zM440 960h-40v26.25c0 3.802 1.341 7.044 4.024 9.726s5.924 4.024 9.726 4.024H440v-40zm0 0h40v40h-40zm40 40l40-20-40-20zm160-40l20 40 20-40zm280 0h40v40h-40zm80 0h-40v40h26.25c3.802 0 7.044-1.342 9.726-4.024s4.024-5.924 4.024-9.726V960zm40 0h40v40h-40zm-600 40h40v40h-40zm160 40l-20-40-20 40zm120 0l-40-20 40-20zm0-40h40v40h-40zm40 40l40-20-40-20zm120-26.25V1000h-26.25c-3.802 0-7.044 1.341-9.726 4.024s-4.024 5.924-4.024 9.726V1040h40v-26.25zm0-13.75h40v40h-40zm40 0h40v40h-40zm120 0h40v40h-40zm-600 80l-40-20 40-20zm40-40h-40v40h26.25c3.802 0 7.044-1.342 9.726-4.024s4.024-5.924 4.024-9.726V1040zm120 0h-40v26.25c0 3.802 1.341 7.044 4.024 9.726s5.924 4.024 9.726 4.024H600v-40zm0 0h40v40h-40zm40 40l40-20-40-20zm240-40h-40v26.25c0 3.802 1.341 7.044 4.024 9.726s5.924 4.024 9.726 4.024H880v-40zm0 0h40v40h-40zm40 0h40v40h-40zm40 0h40v40h-40zm40 0h40v40h-40zm80 0h-40v40h26.25c3.802 0 7.044-1.342 9.726-4.024s4.024-5.924 4.024-9.726V1040z" fill="#fe0365"/><g fill="#fe0365"><path d="M329.657 277.525c-8.156-2.817-14.013-10.532-14.013-19.64s5.857-16.816 14.005-19.638c-8.148-2.817-14.005-10.532-14.005-19.633 0-9.104 5.857-16.822 14.005-19.636-8.148-2.822-14.005-10.535-14.005-19.639s5.857-16.82 14.005-19.636c-8.148-2.82-14.005-10.532-14.005-19.636s5.857-16.822 14.008-19.636a20.807 20.807 0 01-12.852-12.85c-2.82 8.145-10.532 14.003-19.636 14.003-9.107 0-16.823-5.86-19.64-14.014-2.816 8.154-10.531 14.014-19.638 14.014-9.104 0-16.817-5.858-19.636-14.003-2.82 8.145-10.532 14.003-19.636 14.003s-16.822-5.858-19.636-14.005c-2.82 8.147-10.535 14.005-19.639 14.005s-16.82-5.858-19.636-14.003c-2.817 8.145-10.532 14.003-19.636 14.003s-16.822-5.86-19.636-14.01a20.808 20.808 0 01-12.852 12.854c8.145 2.817 14.005 10.535 14.005 19.639s-5.86 16.817-14.005 19.636c8.147 2.817 14.005 10.532 14.005 19.636s-5.858 16.817-14.005 19.636c8.147 2.817 14.005 10.532 14.005 19.639s-5.858 16.822-14.003 19.633c8.145 2.822 14.003 10.532 14.003 19.639s-5.863 16.822-14.014 19.639c8.154 2.816 14.014 10.532 14.014 19.639 0 9.101-5.86 16.816-14.005 19.633a20.815 20.815 0 0112.85 12.85c2.816-8.146 10.534-14.003 19.638-14.003s16.82 5.857 19.636 14.002c2.817-8.145 10.532-14.002 19.636-14.002s16.82 5.857 19.636 14.002c2.817-8.145 10.532-14.002 19.639-14.002s16.822 5.857 19.636 14.002c2.82-8.145 10.532-14.002 19.636-14.002 9.107 0 16.822 5.857 19.639 14.013 2.816-8.156 10.532-14.013 19.639-14.013 9.104 0 16.816 5.857 19.636 14.002a20.815 20.815 0 0112.85-12.85c-8.149-2.816-14.006-10.531-14.006-19.632 0-9.107 5.857-16.823 14.013-19.64z" fill="none"/><path d="M357.228 140.067c0-9.104-5.858-16.822-14.009-19.636 8.15-2.82 14.009-10.535 14.009-19.639 0-11.488-9.307-20.792-20.792-20.792-9.105 0-16.817 5.855-19.636 14.003C313.98 85.855 306.268 80 297.164 80c-9.107 0-16.823 5.86-19.64 14.011C274.709 85.861 266.994 80 257.887 80c-9.104 0-16.817 5.855-19.636 14.003C235.43 85.855 227.718 80 218.614 80s-16.822 5.855-19.636 14.006C196.158 85.855 188.443 80 179.339 80s-16.82 5.855-19.636 14.003C156.886 85.855 149.171 80 140.067 80s-16.822 5.86-19.636 14.008C117.614 85.861 109.896 80 100.792 80 89.307 80 80 89.304 80 100.792c0 9.104 5.86 16.82 14.008 19.636C85.861 123.245 80 130.963 80 140.067s5.858 16.817 14.003 19.636C85.858 162.52 80 170.235 80 179.339s5.858 16.817 14.006 19.636C85.858 201.792 80 209.507 80 218.614s5.858 16.822 14.003 19.633C85.858 241.07 80 248.78 80 257.886s5.86 16.822 14.011 19.639C85.861 280.34 80 288.057 80 297.164c0 9.101 5.858 16.816 14.003 19.633C85.858 319.619 80 327.329 80 336.436c0 11.485 9.307 20.792 20.792 20.792a21.06 21.06 0 004.192-.422c7.23-1.477 13.074-6.725 15.447-13.578 2.814 8.145 10.532 14.002 19.636 14.002s16.82-5.852 19.636-14.002c2.817 8.145 10.532 14.002 19.636 14.002s16.82-5.852 19.636-14.002c2.817 8.142 10.532 14 19.639 14s16.822-5.858 19.636-14.009c2.82 8.145 10.532 14.009 19.636 14.009 9.107 0 16.822-5.864 19.639-14.014 2.816 8.148 10.532 14.014 19.639 14.014 9.104 0 16.816-5.858 19.636-14.009 2.819 8.15 10.531 14.009 19.636 14.009 11.485 0 20.792-9.307 20.792-20.792 0-9.107-5.858-16.817-14.006-19.64 8.148-2.816 14.006-10.531 14.006-19.632 0-9.107-5.858-16.823-14.014-19.64 8.148-2.816 14.014-10.531 14.014-19.638s-5.858-16.817-14.006-19.639c8.148-2.817 14.006-10.532 14.006-19.633 0-9.104-5.858-16.822-14.006-19.636 8.145-2.822 14.006-10.535 14.006-19.639s-5.858-16.82-14.006-19.636c8.148-2.82 14.006-10.532 14.006-19.636zm-27.579 176.73a20.815 20.815 0 00-12.85 12.85c-2.819-8.146-10.531-14.003-19.635-14.003-9.107 0-16.823 5.857-19.64 14.013-2.816-8.156-10.531-14.013-19.638-14.013-9.104 0-16.817 5.857-19.636 14.002-2.82-8.145-10.532-14.002-19.636-14.002s-16.822 5.857-19.636 14.002c-2.82-8.145-10.535-14.002-19.639-14.002s-16.82 5.857-19.636 14.002c-2.817-8.145-10.532-14.002-19.636-14.002s-16.822 5.857-19.636 14.002a20.815 20.815 0 00-12.85-12.85c8.145-2.816 14.003-10.531 14.003-19.632 0-9.107-5.863-16.823-14.014-19.64 8.154-2.816 14.014-10.531 14.014-19.638s-5.86-16.817-14.005-19.639c8.147-2.817 14.005-10.532 14.005-19.633 0-9.104-5.858-16.822-14.005-19.636 8.147-2.822 14.005-10.535 14.005-19.639s-5.858-16.82-14.003-19.636c8.145-2.82 14.003-10.532 14.003-19.636s-5.86-16.822-14.008-19.636a20.81 20.81 0 0012.852-12.852c2.817 8.145 10.535 14.005 19.639 14.005s16.82-5.858 19.636-14.003c2.817 8.145 10.532 14.003 19.636 14.003s16.82-5.858 19.636-14.005c2.817 8.147 10.532 14.005 19.639 14.005s16.822-5.858 19.636-14.003c2.82 8.145 10.532 14.003 19.636 14.003 9.107 0 16.822-5.86 19.639-14.014 2.816 8.154 10.532 14.014 19.639 14.014 9.104 0 16.816-5.858 19.636-14.003a20.813 20.813 0 0012.852 12.85c-8.15 2.814-14.008 10.532-14.008 19.636s5.857 16.817 14.005 19.636c-8.148 2.817-14.005 10.532-14.005 19.636s5.857 16.817 14.005 19.636c-8.148 2.817-14.005 10.532-14.005 19.639s5.857 16.822 14.005 19.633c-8.148 2.822-14.005 10.532-14.005 19.639s5.857 16.822 14.013 19.639c-8.156 2.816-14.013 10.532-14.013 19.639 0 9.101 5.857 16.816 14.005 19.633z"/></g><g fill="#fe0365"><path d="M1049.657 277.525c-8.156-2.817-14.013-10.532-14.013-19.64s5.857-16.816 14.005-19.638c-8.148-2.817-14.005-10.532-14.005-19.633 0-9.104 5.857-16.822 14.005-19.636-8.148-2.822-14.005-10.535-14.005-19.639s5.857-16.82 14.005-19.636c-8.148-2.82-14.005-10.532-14.005-19.636s5.857-16.822 14.008-19.636a20.807 20.807 0 01-12.852-12.85c-2.82 8.145-10.532 14.003-19.636 14.003-9.107 0-16.823-5.86-19.64-14.014-2.816 8.154-10.531 14.014-19.638 14.014-9.104 0-16.817-5.858-19.636-14.003-2.82 8.145-10.532 14.003-19.636 14.003s-16.822-5.858-19.636-14.005c-2.82 8.147-10.535 14.005-19.639 14.005s-16.82-5.858-19.636-14.003c-2.817 8.145-10.532 14.003-19.636 14.003s-16.822-5.86-19.636-14.01a20.808 20.808 0 01-12.852 12.854c8.145 2.817 14.005 10.535 14.005 19.639s-5.86 16.817-14.005 19.636c8.147 2.817 14.005 10.532 14.005 19.636s-5.858 16.817-14.005 19.636c8.147 2.817 14.005 10.532 14.005 19.639s-5.858 16.822-14.003 19.633c8.145 2.822 14.003 10.532 14.003 19.639s-5.863 16.822-14.014 19.639c8.154 2.816 14.014 10.532 14.014 19.639 0 9.101-5.86 16.816-14.005 19.633a20.815 20.815 0 0112.85 12.85c2.816-8.146 10.534-14.003 19.638-14.003s16.82 5.857 19.636 14.002c2.817-8.145 10.532-14.002 19.636-14.002s16.82 5.857 19.636 14.002c2.817-8.145 10.532-14.002 19.639-14.002s16.822 5.857 19.636 14.002c2.82-8.145 10.532-14.002 19.636-14.002 9.107 0 16.822 5.857 19.639 14.013 2.816-8.156 10.532-14.013 19.639-14.013 9.104 0 16.816 5.857 19.636 14.002a20.815 20.815 0 0112.85-12.85c-8.149-2.816-14.006-10.531-14.006-19.632 0-9.107 5.857-16.823 14.013-19.64z" fill="none"/><path d="M1077.228 140.067c0-9.104-5.858-16.822-14.009-19.636 8.15-2.82 14.009-10.535 14.009-19.639 0-11.488-9.307-20.792-20.792-20.792-9.105 0-16.817 5.855-19.636 14.003-2.82-8.148-10.532-14.003-19.636-14.003-9.107 0-16.823 5.86-19.64 14.011C994.709 85.861 986.994 80 977.887 80c-9.104 0-16.817 5.855-19.636 14.003C955.43 85.855 947.718 80 938.614 80s-16.822 5.855-19.636 14.006C916.158 85.855 908.443 80 899.339 80s-16.82 5.855-19.636 14.003C876.886 85.855 869.171 80 860.067 80s-16.822 5.86-19.636 14.008C837.614 85.861 829.896 80 820.792 80 809.307 80 800 89.304 800 100.792c0 9.104 5.86 16.82 14.008 19.636-8.147 2.817-14.008 10.535-14.008 19.639s5.858 16.817 14.003 19.636C805.858 162.52 800 170.235 800 179.339s5.858 16.817 14.006 19.636C805.858 201.792 800 209.507 800 218.614s5.858 16.822 14.003 19.633C805.858 241.07 800 248.78 800 257.886s5.86 16.822 14.011 19.639C805.861 280.34 800 288.057 800 297.164c0 9.101 5.858 16.816 14.003 19.633-8.145 2.822-14.003 10.532-14.003 19.639 0 11.485 9.307 20.792 20.792 20.792a21.06 21.06 0 004.192-.422c7.23-1.477 13.074-6.725 15.447-13.578 2.814 8.145 10.532 14.002 19.636 14.002s16.82-5.852 19.636-14.002c2.817 8.145 10.532 14.002 19.636 14.002s16.82-5.852 19.636-14.002c2.817 8.142 10.532 14 19.639 14s16.822-5.858 19.636-14.009c2.82 8.145 10.532 14.009 19.636 14.009 9.107 0 16.822-5.864 19.639-14.014 2.816 8.148 10.532 14.014 19.639 14.014 9.104 0 16.816-5.858 19.636-14.009 2.819 8.15 10.531 14.009 19.636 14.009 11.485 0 20.792-9.307 20.792-20.792 0-9.107-5.858-16.817-14.006-19.64 8.148-2.816 14.006-10.531 14.006-19.632 0-9.107-5.858-16.823-14.014-19.64 8.148-2.816 14.014-10.531 14.014-19.638s-5.858-16.817-14.006-19.639c8.148-2.817 14.006-10.532 14.006-19.633 0-9.104-5.858-16.822-14.006-19.636 8.145-2.822 14.006-10.535 14.006-19.639s-5.858-16.82-14.006-19.636c8.148-2.82 14.006-10.532 14.006-19.636zm-27.579 176.73a20.815 20.815 0 00-12.85 12.85c-2.819-8.146-10.531-14.003-19.635-14.003-9.107 0-16.823 5.857-19.64 14.013-2.816-8.156-10.531-14.013-19.638-14.013-9.104 0-16.817 5.857-19.636 14.002-2.82-8.145-10.532-14.002-19.636-14.002s-16.822 5.857-19.636 14.002c-2.82-8.145-10.535-14.002-19.639-14.002s-16.82 5.857-19.636 14.002c-2.817-8.145-10.532-14.002-19.636-14.002s-16.822 5.857-19.636 14.002a20.815 20.815 0 00-12.85-12.85c8.145-2.816 14.003-10.531 14.003-19.632 0-9.107-5.863-16.823-14.014-19.64 8.154-2.816 14.014-10.531 14.014-19.638s-5.86-16.817-14.005-19.639c8.147-2.817 14.005-10.532 14.005-19.633 0-9.104-5.858-16.822-14.005-19.636 8.147-2.822 14.005-10.535 14.005-19.639s-5.858-16.82-14.003-19.636c8.145-2.82 14.003-10.532 14.003-19.636s-5.86-16.822-14.008-19.636a20.81 20.81 0 0012.852-12.852c2.817 8.145 10.535 14.005 19.639 14.005s16.82-5.858 19.636-14.003c2.817 8.145 10.532 14.003 19.636 14.003s16.82-5.858 19.636-14.005c2.817 8.147 10.532 14.005 19.639 14.005s16.822-5.858 19.636-14.003c2.82 8.145 10.532 14.003 19.636 14.003 9.107 0 16.822-5.86 19.639-14.014 2.816 8.154 10.532 14.014 19.639 14.014 9.104 0 16.816-5.858 19.636-14.003a20.813 20.813 0 0012.852 12.85c-8.15 2.814-14.008 10.532-14.008 19.636s5.857 16.817 14.005 19.636c-8.148 2.817-14.005 10.532-14.005 19.636s5.857 16.817 14.005 19.636c-8.148 2.817-14.005 10.532-14.005 19.639s5.857 16.822 14.005 19.633c-8.148 2.822-14.005 10.532-14.005 19.639s5.857 16.822 14.013 19.639c-8.156 2.816-14.013 10.532-14.013 19.639 0 9.101 5.857 16.816 14.005 19.633z"/></g><g fill="#fe0365"><path d="M329.657 997.525c-8.156-2.817-14.013-10.532-14.013-19.64s5.857-16.816 14.005-19.638c-8.148-2.817-14.005-10.532-14.005-19.633 0-9.104 5.857-16.822 14.005-19.636-8.148-2.822-14.005-10.535-14.005-19.639s5.857-16.82 14.005-19.636c-8.148-2.82-14.005-10.532-14.005-19.636s5.857-16.822 14.008-19.636a20.807 20.807 0 01-12.852-12.85c-2.82 8.145-10.532 14.003-19.636 14.003-9.107 0-16.823-5.86-19.64-14.014-2.816 8.154-10.531 14.014-19.638 14.014-9.104 0-16.817-5.858-19.636-14.003-2.82 8.145-10.532 14.003-19.636 14.003s-16.822-5.858-19.636-14.005c-2.82 8.147-10.535 14.005-19.639 14.005s-16.82-5.858-19.636-14.003c-2.817 8.145-10.532 14.003-19.636 14.003s-16.822-5.86-19.636-14.01a20.808 20.808 0 01-12.852 12.854c8.145 2.817 14.005 10.535 14.005 19.639s-5.86 16.817-14.005 19.636c8.147 2.817 14.005 10.532 14.005 19.636s-5.858 16.817-14.005 19.636c8.147 2.817 14.005 10.532 14.005 19.639s-5.858 16.822-14.003 19.633c8.145 2.822 14.003 10.532 14.003 19.639s-5.863 16.822-14.014 19.639c8.154 2.816 14.014 10.532 14.014 19.639 0 9.101-5.86 16.816-14.005 19.633a20.815 20.815 0 0112.85 12.85c2.816-8.146 10.534-14.003 19.638-14.003s16.82 5.857 19.636 14.002c2.817-8.145 10.532-14.002 19.636-14.002s16.82 5.857 19.636 14.002c2.817-8.145 10.532-14.002 19.639-14.002s16.822 5.857 19.636 14.002c2.82-8.145 10.532-14.002 19.636-14.002 9.107 0 16.822 5.857 19.639 14.013 2.816-8.156 10.532-14.013 19.639-14.013 9.104 0 16.816 5.857 19.636 14.002a20.815 20.815 0 0112.85-12.85c-8.149-2.816-14.006-10.531-14.006-19.632 0-9.107 5.857-16.823 14.013-19.64z" fill="none"/><path d="M357.228 860.067c0-9.104-5.858-16.822-14.009-19.636 8.15-2.82 14.009-10.535 14.009-19.639 0-11.488-9.307-20.792-20.792-20.792-9.105 0-16.817 5.855-19.636 14.003-2.82-8.148-10.532-14.003-19.636-14.003-9.107 0-16.823 5.86-19.64 14.011-2.816-8.15-10.531-14.011-19.638-14.011-9.104 0-16.817 5.855-19.636 14.003-2.82-8.148-10.532-14.003-19.636-14.003s-16.822 5.855-19.636 14.006c-2.82-8.151-10.535-14.006-19.639-14.006s-16.82 5.855-19.636 14.003C156.886 805.855 149.171 800 140.067 800s-16.822 5.86-19.636 14.008C117.614 805.861 109.896 800 100.792 800 89.307 800 80 809.304 80 820.792c0 9.104 5.86 16.82 14.008 19.636C85.861 843.245 80 850.963 80 860.067s5.858 16.817 14.003 19.636C85.858 882.52 80 890.235 80 899.339s5.858 16.817 14.006 19.636C85.858 921.792 80 929.507 80 938.614s5.858 16.822 14.003 19.633C85.858 961.07 80 968.78 80 977.886s5.86 16.822 14.011 19.639C85.861 1000.34 80 1008.057 80 1017.164c0 9.101 5.858 16.816 14.003 19.633-8.145 2.822-14.003 10.532-14.003 19.639 0 11.485 9.307 20.792 20.792 20.792a21.06 21.06 0 004.192-.422c7.23-1.477 13.074-6.725 15.447-13.578 2.814 8.145 10.532 14.002 19.636 14.002s16.82-5.852 19.636-14.002c2.817 8.145 10.532 14.002 19.636 14.002s16.82-5.852 19.636-14.002c2.817 8.142 10.532 14 19.639 14s16.822-5.858 19.636-14.009c2.82 8.145 10.532 14.009 19.636 14.009 9.107 0 16.822-5.864 19.639-14.014 2.816 8.148 10.532 14.014 19.639 14.014 9.104 0 16.816-5.858 19.636-14.009 2.819 8.15 10.531 14.009 19.636 14.009 11.485 0 20.792-9.307 20.792-20.792 0-9.107-5.858-16.817-14.006-19.64 8.148-2.816 14.006-10.531 14.006-19.632 0-9.107-5.858-16.823-14.014-19.64 8.148-2.816 14.014-10.531 14.014-19.638s-5.858-16.817-14.006-19.639c8.148-2.817 14.006-10.532 14.006-19.633 0-9.104-5.858-16.822-14.006-19.636 8.145-2.822 14.006-10.535 14.006-19.639s-5.858-16.82-14.006-19.636c8.148-2.82 14.006-10.532 14.006-19.636zm-27.579 176.73a20.815 20.815 0 00-12.85 12.85c-2.819-8.146-10.531-14.003-19.635-14.003-9.107 0-16.823 5.857-19.64 14.013-2.816-8.156-10.531-14.013-19.638-14.013-9.104 0-16.817 5.857-19.636 14.002-2.82-8.145-10.532-14.002-19.636-14.002s-16.822 5.857-19.636 14.002c-2.82-8.145-10.535-14.002-19.639-14.002s-16.82 5.857-19.636 14.002c-2.817-8.145-10.532-14.002-19.636-14.002s-16.822 5.857-19.636 14.002a20.815 20.815 0 00-12.85-12.85c8.145-2.816 14.003-10.531 14.003-19.632 0-9.107-5.863-16.823-14.014-19.64 8.154-2.816 14.014-10.531 14.014-19.638s-5.86-16.817-14.005-19.639c8.147-2.817 14.005-10.532 14.005-19.633 0-9.104-5.858-16.822-14.005-19.636 8.147-2.822 14.005-10.535 14.005-19.639s-5.858-16.82-14.003-19.636c8.145-2.82 14.003-10.532 14.003-19.636s-5.86-16.822-14.008-19.636a20.81 20.81 0 0012.852-12.852c2.817 8.145 10.535 14.005 19.639 14.005s16.82-5.858 19.636-14.003c2.817 8.145 10.532 14.003 19.636 14.003s16.82-5.858 19.636-14.005c2.817 8.147 10.532 14.005 19.639 14.005s16.822-5.858 19.636-14.003c2.82 8.145 10.532 14.003 19.636 14.003 9.107 0 16.822-5.86 19.639-14.014 2.816 8.154 10.532 14.014 19.639 14.014 9.104 0 16.816-5.858 19.636-14.003a20.813 20.813 0 0012.852 12.85c-8.15 2.814-14.008 10.532-14.008 19.636s5.857 16.817 14.005 19.636c-8.148 2.817-14.005 10.532-14.005 19.636s5.857 16.817 14.005 19.636c-8.148 2.817-14.005 10.532-14.005 19.639s5.857 16.822 14.005 19.633c-8.148 2.822-14.005 10.532-14.005 19.639s5.857 16.822 14.013 19.639c-8.156 2.816-14.013 10.532-14.013 19.639 0 9.101 5.857 16.816 14.005 19.633z"/></g><path d="M280.073 160.02V280h-120l.034-86.843C160.106 174.877 174.724 160 192.67 160h54.634c5.618 0 13.81 0 20.605.02h12.163zm599.854 0V280h120l-.034-86.843c.001-18.28-14.617-33.157-32.564-33.157h-54.634c-5.618 0-13.81 0-20.605.02h-12.163zM280.073 999.98V880h-120l.034 86.843c-.001 18.28 14.617 33.157 32.564 33.157h54.634c5.618 0 13.81 0 20.605-.02h12.163z" fill="#fe0365"/></svg>