<svg xmlns="http://www.w3.org/2000/svg" width="2277" height="2277"><path fill="#FFF" d="M0 0h2277v2277H0z"/><path d="M759 141.45l65.55-3.45 3.45 65.55-65.55 3.45zm417.45 13.8l48.3-13.8 13.8 48.3-48.3 13.8zm71.07-14.49l-2.76 60.72 60.72 2.76 2.76-60.72zm69 0l-2.76 60.72 60.72 2.76 2.76-60.72zm69 0l-2.76 60.72 60.72 2.76 2.76-60.72zm73.83.69l-6.9 55.2 55.2 6.9 6.9-55.2zm-694.83 68.31l-2.76 60.72 60.72 2.76 2.76-60.72zM897 217.35L955.65 207 966 265.65 907.35 276zm414-3.45l62.1-6.9 6.9 62.1-62.1 6.9zm207 3.45l58.65-10.35 10.35 58.65-58.65 10.35zm-828 66.93l60.72-8.28 8.28 60.72-60.72 8.28zm69 3.45L816.27 276 828 333.27 770.73 345zm207-1.38l58.65-10.35 10.35 58.65L976.35 345zm138 0l58.65-10.35 10.35 58.65-58.65 10.35zm138-6.9l65.55-3.45 3.45 65.55-65.55 3.45zm138 6.9l58.65-10.35 10.35 58.65-58.65 10.35zm-684.48 61.41l-2.76 60.72 60.72 2.76 2.76-60.72zM897 355.35L955.65 345 966 403.65 907.35 414zM1250.97 345l-8.97 60.03 60.03 8.97 8.97-60.03zm70.38 3.45l-6.9 55.2 55.2 6.9 6.9-55.2zm127.65 4.83l60.72-8.28 8.28 60.72-60.72 8.28zm84.18-8.28L1518 398.82l53.82 15.18 15.18-53.82zm-837.66 71.76l-2.76 60.72 60.72 2.76 2.76-60.72zm78.66-2.76L759 467.82 812.82 483 828 429.18zm195.27 17.25l48.3-13.8 13.8 48.3-48.3 13.8zm71.07-14.49l-2.76 60.72 60.72 2.76 2.76-60.72zm69 0l-2.76 60.72 60.72 2.76 2.76-60.72zm78.66-2.76L1173 467.82l53.82 15.18 15.18-53.82zm191.82 8.28l60.72-8.28 8.28 60.72-60.72 8.28zm74.52-5.52l-2.76 60.72 60.72 2.76 2.76-60.72zm63.48 8.97l57.27-11.73 11.73 57.27-57.27 11.73zm-822.48 60.03l-2.76 60.72 60.72 2.76 2.76-60.72zm63.48 8.97L816.27 483 828 540.27 770.73 552zm138-1.38L955.65 483 966 541.65 907.35 552zM1043.97 483l-8.97 60.03 60.03 8.97 8.97-60.03zm65.55 2.76l-2.76 60.72 60.72 2.76 2.76-60.72zm69 0l-2.76 60.72 60.72 2.76 2.76-60.72zm78.66-2.76L1242 536.82l53.82 15.18 15.18-53.82zm128.34 2.76l-2.76 60.72 60.72 2.76 2.76-60.72zm-690 69l-2.76 60.72 60.72 2.76 2.76-60.72zM828 562.35L886.65 552 897 610.65 838.35 621zm138 0l58.65-10.35 10.35 58.65L976.35 621zm138-3.45l62.1-6.9 6.9 62.1-62.1 6.9zm138 0l62.1-6.9 6.9 62.1-62.1 6.9zm138 0l62.1-6.9 6.9 62.1-62.1 6.9zm138-3.45l65.55-3.45 3.45 65.55-65.55 3.45zM698.97 621L690 681.03l60.03 8.97 8.97-60.03zm70.38 3.45l-6.9 55.2 55.2 6.9 6.9-55.2zm265.65 6.9l58.65-10.35 10.35 58.65-58.65 10.35zm138-6.9l65.55-3.45 3.45 65.55-65.55 3.45zm279.45 13.8l48.3-13.8 13.8 48.3-48.3 13.8zm65.55-5.52l57.27-11.73 11.73 57.27-57.27 11.73zM138 693.45l65.55-3.45 3.45 65.55-65.55 3.45zm138 4.83l60.72-8.28 8.28 60.72-60.72 8.28zm74.52-5.52l-2.76 60.72 60.72 2.76 2.76-60.72zm69 0l-2.76 60.72 60.72 2.76 2.76-60.72zm69 0l-2.76 60.72 60.72 2.76 2.76-60.72zm73.83.69l-6.9 55.2 55.2 6.9 6.9-55.2zm403.65 6.9l58.65-10.35 10.35 58.65L976.35 759zm141.45 6.9l48.3-13.8 13.8 48.3-48.3 13.8zm71.07-14.49l-2.76 60.72 60.72 2.76 2.76-60.72zm132.48 7.59l58.65-10.35 10.35 58.65-58.65 10.35zm345-2.07l60.72-8.28 8.28 60.72-60.72 8.28zm74.52-5.52l-2.76 60.72 60.72 2.76 2.76-60.72zm69 0l-2.76 60.72 60.72 2.76 2.76-60.72zm69 0l-2.76 60.72 60.72 2.76 2.76-60.72zm73.83.69l-6.9 55.2 55.2 6.9 6.9-55.2zM143.52 761.76l-2.76 60.72 60.72 2.76 2.76-60.72zM284.97 759L276 819.03l60.03 8.97 8.97-60.03zm65.55 2.76l-2.76 60.72 60.72 2.76 2.76-60.72zm69 0l-2.76 60.72 60.72 2.76 2.76-60.72zM621 769.35L679.65 759 690 817.65 631.35 828zm141.45 6.9l48.3-13.8 13.8 48.3-48.3 13.8zm71.07-14.49l-2.76 60.72 60.72 2.76 2.76-60.72zm78.66-2.76L897 812.82 950.82 828 966 774.18zm269.79 0l-8.97 60.03 60.03 8.97 8.97-60.03zm70.38 3.45l-6.9 55.2 55.2 6.9 6.9-55.2zm200.1 13.8l48.3-13.8 13.8 48.3-48.3 13.8zm71.07-14.49l-2.76 60.72 60.72 2.76 2.76-60.72zm69 0l-2.76 60.72 60.72 2.76 2.76-60.72zm69 0l-2.76 60.72 60.72 2.76 2.76-60.72zm69 0l-2.76 60.72 60.72 2.76 2.76-60.72zm63.48 8.97l57.27-11.73 11.73 57.27-57.27 11.73zm276-1.38l58.65-10.35 10.35 58.65-58.65 10.35zM138 834.9l62.1-6.9 6.9 62.1-62.1 6.9zm212.52-4.14l-2.76 60.72 60.72 2.76 2.76-60.72zm63.48 8.97L471.27 828 483 885.27 425.73 897zm138-1.38L610.65 828 621 886.65 562.35 897zM905.97 828L897 888.03l60.03 8.97 8.97-60.03zm70.38 3.45l-6.9 55.2 55.2 6.9 6.9-55.2zm403.65 0l65.55-3.45 3.45 65.55-65.55 3.45zm146.97-3.45l-8.97 60.03 60.03 8.97 8.97-60.03zm65.55 2.76l-2.76 60.72 60.72 2.76 2.76-60.72zm69 0l-2.76 60.72 60.72 2.76 2.76-60.72zM345 903.9l62.1-6.9 6.9 62.1-62.1 6.9zm138 3.45L541.65 897 552 955.65 493.35 966zm138-2.07l60.72-8.28 8.28 60.72-60.72 8.28zm74.52-5.52l-2.76 60.72 60.72 2.76 2.76-60.72zm73.83.69l-6.9 55.2 55.2 6.9 6.9-55.2zm334.65 6.9l58.65-10.35 10.35 58.65-58.65 10.35zm138-6.9l65.55-3.45 3.45 65.55-65.55 3.45zm138 3.45l62.1-6.9 6.9 62.1-62.1 6.9zm284.97-6.9l-8.97 60.03 60.03 8.97 8.97-60.03zm70.38 3.45l-6.9 55.2 55.2 6.9 6.9-55.2zm127.65 0l65.55-3.45 3.45 65.55-65.55 3.45zm138 6.9l58.65-10.35 10.35 58.65-58.65 10.35zm-1794 69L265.65 966l10.35 58.65-58.65 10.35zm348.45 6.9l48.3-13.8 13.8 48.3-48.3 13.8zm71.07-14.49l-2.76 60.72 60.72 2.76 2.76-60.72zm624.45-2.76l-8.97 60.03 60.03 8.97 8.97-60.03zm70.38 3.45l-6.9 55.2 55.2 6.9 6.9-55.2zm127.65 0l65.55-3.45 3.45 65.55-65.55 3.45zm138 6.9l58.65-10.35 10.35 58.65-58.65 10.35zM1871.97 966l-8.97 60.03 60.03 8.97 8.97-60.03zm70.38 3.45l-6.9 55.2 55.2 6.9 6.9-55.2zM138 1045.35l58.65-10.35 10.35 58.65-58.65 10.35zm141.45 6.9l48.3-13.8 13.8 48.3-48.3 13.8zm75.9-13.8l-6.9 55.2 55.2 6.9 6.9-55.2zm127.65 0l65.55-3.45 3.45 65.55-65.55 3.45zm143.52-.69l-2.76 60.72 60.72 2.76 2.76-60.72zm201.48.69l65.55-3.45 3.45 65.55-65.55 3.45zm207 4.83l60.72-8.28 8.28 60.72-60.72 8.28zm74.52-5.52l-2.76 60.72 60.72 2.76 2.76-60.72zm78.66-2.76l-15.18 53.82 53.82 15.18 15.18-53.82zm269.79 0l-8.97 60.03 60.03 8.97 8.97-60.03zm70.38 3.45l-6.9 55.2 55.2 6.9 6.9-55.2zm131.1 13.8l48.3-13.8 13.8 48.3-48.3 13.8zm71.07-14.49l-2.76 60.72 60.72 2.76 2.76-60.72zm78.66-2.76l-15.18 53.82 53.82 15.18 15.18-53.82zm260.82 10.35l58.65-10.35 10.35 58.65-58.65 10.35zm-1863 69l58.65-10.35 10.35 58.65-58.65 10.35zM491.97 1104l-8.97 60.03 60.03 8.97 8.97-60.03zm65.55 2.76l-2.76 60.72 60.72 2.76 2.76-60.72zm69 0l-2.76 60.72 60.72 2.76 2.76-60.72zm207 0l-2.76 60.72 60.72 2.76 2.76-60.72zm207 0l-2.76 60.72 60.72 2.76 2.76-60.72zm69 0l-2.76 60.72 60.72 2.76 2.76-60.72zm69 0l-2.76 60.72 60.72 2.76 2.76-60.72zm73.83.69l-6.9 55.2 55.2 6.9 6.9-55.2zm127.65 0l65.55-3.45 3.45 65.55-65.55 3.45zm207 0l65.55-3.45 3.45 65.55-65.55 3.45zm146.97-3.45l-8.97 60.03 60.03 8.97 8.97-60.03zm65.55 2.76l-2.76 60.72 60.72 2.76 2.76-60.72zm69 0l-2.76 60.72 60.72 2.76 2.76-60.72zm73.83.69l-6.9 55.2 55.2 6.9 6.9-55.2zM629.97 1173l-8.97 60.03 60.03 8.97 8.97-60.03zm65.55 2.76l-2.76 60.72 60.72 2.76 2.76-60.72zm69 0l-2.76 60.72 60.72 2.76 2.76-60.72zm69 0l-2.76 60.72 60.72 2.76 2.76-60.72zm69 0l-2.76 60.72 60.72 2.76 2.76-60.72zm69 0l-2.76 60.72 60.72 2.76 2.76-60.72zm63.48 8.97l57.27-11.73 11.73 57.27-57.27 11.73zm143.52-8.97l-2.76 60.72 60.72 2.76 2.76-60.72zm207 0l-2.76 60.72 60.72 2.76 2.76-60.72zm135.93 14.49l48.3-13.8 13.8 48.3-48.3 13.8zm71.07-14.49l-2.76 60.72 60.72 2.76 2.76-60.72zm73.83.69l-6.9 55.2 55.2 6.9 6.9-55.2zm127.65 3.45l62.1-6.9 6.9 62.1-62.1 6.9zm207 3.45l58.65-10.35 10.35 58.65-58.65 10.35zm-1794 69l58.65-10.35 10.35 58.65-58.65 10.35zm138 0l58.65-10.35 10.35 58.65-58.65 10.35zm207 0l58.65-10.35 10.35 58.65-58.65 10.35zm276-3.45l62.1-6.9 6.9 62.1-62.1 6.9zm279.45 10.35l48.3-13.8 13.8 48.3-48.3 13.8zm71.07-14.49l-2.76 60.72 60.72 2.76 2.76-60.72zm132.48 5.52l60.72-8.28 8.28 60.72-60.72 8.28zm74.52-5.52l-2.76 60.72 60.72 2.76 2.76-60.72zm78.66-2.76l-15.18 53.82 53.82 15.18 15.18-53.82zm128.34 2.76l-2.76 60.72 60.72 2.76 2.76-60.72zm273.93 14.49l48.3-13.8 13.8 48.3-48.3 13.8zm80.73-17.25l-15.18 53.82 53.82 15.18 15.18-53.82zM138 1314.45l65.55-3.45 3.45 65.55-65.55 3.45zm552 0l65.55-3.45 3.45 65.55-65.55 3.45zm491.97-3.45l-8.97 60.03 60.03 8.97 8.97-60.03zm65.55 2.76l-2.76 60.72 60.72 2.76 2.76-60.72zm69 0l-2.76 60.72 60.72 2.76 2.76-60.72zm69 0l-2.76 60.72 60.72 2.76 2.76-60.72zm69 0l-2.76 60.72 60.72 2.76 2.76-60.72zm69 0l-2.76 60.72 60.72 2.76 2.76-60.72zm69 0l-2.76 60.72 60.72 2.76 2.76-60.72zm69 0l-2.76 60.72 60.72 2.76 2.76-60.72zm69 0l-2.76 60.72 60.72 2.76 2.76-60.72zm78.66-2.76l-15.18 53.82 53.82 15.18 15.18-53.82zm128.34 2.76l-2.76 60.72 60.72 2.76 2.76-60.72zm132.48 7.59l58.65-10.35 10.35 58.65-58.65 10.35zm-1926.48 61.41l-2.76 60.72 60.72 2.76 2.76-60.72zm270.48.69l65.55-3.45 3.45 65.55-65.55 3.45zm141.45 13.8l48.3-13.8 13.8 48.3-48.3 13.8zm71.07-14.49l-2.76 60.72 60.72 2.76 2.76-60.72zm69 0l-2.76 60.72 60.72 2.76 2.76-60.72zm69 0l-2.76 60.72 60.72 2.76 2.76-60.72zm69 0l-2.76 60.72 60.72 2.76 2.76-60.72zm73.83.69l-6.9 55.2 55.2 6.9 6.9-55.2zm403.65 3.45l62.1-6.9 6.9 62.1-62.1 6.9zm350.52-4.14l-2.76 60.72 60.72 2.76 2.76-60.72zm132.48 4.14l62.1-6.9 6.9 62.1-62.1 6.9zm138 0l62.1-6.9 6.9 62.1-62.1 6.9zm-1788.48 64.86l-2.76 60.72 60.72 2.76 2.76-60.72zm276 0l-2.76 60.72 60.72 2.76 2.76-60.72zm73.83.69l-6.9 55.2 55.2 6.9 6.9-55.2zM621 1455.9l62.1-6.9 6.9 62.1-62.1 6.9zm143.52-4.14l-2.76 60.72 60.72 2.76 2.76-60.72zm69 0l-2.76 60.72 60.72 2.76 2.76-60.72zm270.48 7.59l58.65-10.35 10.35 58.65-58.65 10.35zm138-6.9l65.55-3.45 3.45 65.55-65.55 3.45zm276 4.83l60.72-8.28 8.28 60.72-60.72 8.28zm74.52-5.52l-2.76 60.72 60.72 2.76 2.76-60.72zm69 0l-2.76 60.72 60.72 2.76 2.76-60.72zm78.66-2.76l-15.18 53.82 53.82 15.18 15.18-53.82zm260.82 3.45l65.55-3.45 3.45 65.55-65.55 3.45zM138 1524.9l62.1-6.9 6.9 62.1-62.1 6.9zm210.45 10.35l48.3-13.8 13.8 48.3-48.3 13.8zm65.55-5.52l57.27-11.73 11.73 57.27-57.27 11.73zm138-1.38l58.65-10.35 10.35 58.65-58.65 10.35zm138-2.07l60.72-8.28 8.28 60.72-60.72 8.28zm74.52-5.52l-2.76 60.72 60.72 2.76 2.76-60.72zm69 0l-2.76 60.72 60.72 2.76 2.76-60.72zm69 0l-2.76 60.72 60.72 2.76 2.76-60.72zm78.66-2.76L966 1571.82l53.82 15.18 15.18-53.82zm260.82 6.9l62.1-6.9 6.9 62.1-62.1 6.9zm138-3.45l65.55-3.45 3.45 65.55-65.55 3.45zm143.52-.69l-2.76 60.72 60.72 2.76 2.76-60.72zm69 0l-2.76 60.72 60.72 2.76 2.76-60.72zm69 0l-2.76 60.72 60.72 2.76 2.76-60.72zm69 0l-2.76 60.72 60.72 2.76 2.76-60.72zm78.66-2.76l-15.18 53.82 53.82 15.18 15.18-53.82zm122.82 8.28l60.72-8.28 8.28 60.72-60.72 8.28zm74.52-5.52l-2.76 60.72 60.72 2.76 2.76-60.72zm78.66-2.76l-15.18 53.82 53.82 15.18 15.18-53.82zm-1386.21 69l-8.97 60.03 60.03 8.97 8.97-60.03zm65.55 2.76l-2.76 60.72 60.72 2.76 2.76-60.72zm63.48 8.97l57.27-11.73 11.73 57.27-57.27 11.73zm143.52-8.97l-2.76 60.72 60.72 2.76 2.76-60.72zm69 0l-2.76 60.72 60.72 2.76 2.76-60.72zm69 0l-2.76 60.72 60.72 2.76 2.76-60.72zm78.66-2.76l-15.18 53.82 53.82 15.18 15.18-53.82zm122.82 8.28l60.72-8.28 8.28 60.72-60.72 8.28zm74.52-5.52l-2.76 60.72 60.72 2.76 2.76-60.72zm69 0l-2.76 60.72 60.72 2.76 2.76-60.72zm69 0l-2.76 60.72 60.72 2.76 2.76-60.72zm276 0l-2.76 60.72 60.72 2.76 2.76-60.72zm69 0l-2.76 60.72 60.72 2.76 2.76-60.72zm69 0l-2.76 60.72 60.72 2.76 2.76-60.72zm69 0l-2.76 60.72 60.72 2.76 2.76-60.72zm63.48 8.97l57.27-11.73 11.73 57.27-57.27 11.73zM974.97 1656l-8.97 60.03 60.03 8.97 8.97-60.03zm65.55 2.76l-2.76 60.72 60.72 2.76 2.76-60.72zm69 0l-2.76 60.72 60.72 2.76 2.76-60.72zm69 0l-2.76 60.72 60.72 2.76 2.76-60.72zm69 0l-2.76 60.72 60.72 2.76 2.76-60.72zm69 0l-2.76 60.72 60.72 2.76 2.76-60.72zm138 0l-2.76 60.72 60.72 2.76 2.76-60.72zm69 0l-2.76 60.72 60.72 2.76 2.76-60.72zm132.48 7.59l58.65-10.35 10.35 58.65-58.65 10.35zm143.52-7.59l-2.76 60.72 60.72 2.76 2.76-60.72zm69 0l-2.76 60.72 60.72 2.76 2.76-60.72zm63.48 8.97l57.27-11.73 11.73 57.27-57.27 11.73zm-1242 60.72l65.55-3.45 3.45 65.55-65.55 3.45zm207 6.9l58.65-10.35 10.35 58.65-58.65 10.35zm138-3.45l62.1-6.9 6.9 62.1-62.1 6.9zm143.52-4.14l-2.76 60.72 60.72 2.76 2.76-60.72zm141.45-2.76l-8.97 60.03 60.03 8.97 8.97-60.03zm65.55 2.76l-2.76 60.72 60.72 2.76 2.76-60.72zm69 0l-2.76 60.72 60.72 2.76 2.76-60.72zm69 0l-2.76 60.72 60.72 2.76 2.76-60.72zm276 0l-2.76 60.72 60.72 2.76 2.76-60.72zm270.48.69l65.55-3.45 3.45 65.55-65.55 3.45zm-1374.48 68.31l-2.76 60.72 60.72 2.76 2.76-60.72zm69 0l-2.76 60.72 60.72 2.76 2.76-60.72zm78.66-2.76L828 1847.82l53.82 15.18 15.18-53.82zM966 1804.35l58.65-10.35 10.35 58.65-58.65 10.35zm141.45 6.9l48.3-13.8 13.8 48.3-48.3 13.8zm71.07-14.49l-2.76 60.72 60.72 2.76 2.76-60.72zm348.45-2.76l-8.97 60.03 60.03 8.97 8.97-60.03zm65.55 2.76l-2.76 60.72 60.72 2.76 2.76-60.72zm69 0l-2.76 60.72 60.72 2.76 2.76-60.72zm69 0l-2.76 60.72 60.72 2.76 2.76-60.72zm63.48 8.97l57.27-11.73 11.73 57.27-57.27 11.73zm138-3.45l60.72-8.28 8.28 60.72-60.72 8.28zm74.52-5.52l-2.76 60.72 60.72 2.76 2.76-60.72zm63.48 8.97l57.27-11.73 11.73 57.27-57.27 11.73zm-1374.48 60.03l-2.76 60.72 60.72 2.76 2.76-60.72zm141.45-2.76l-8.97 60.03 60.03 8.97 8.97-60.03zm70.38 3.45l-6.9 55.2 55.2 6.9 6.9-55.2zm127.65 6.9l58.65-10.35 10.35 58.65-58.65 10.35zm146.97-10.35l-8.97 60.03 60.03 8.97 8.97-60.03zm70.38 3.45l-6.9 55.2 55.2 6.9 6.9-55.2zm127.65 4.83l60.72-8.28 8.28 60.72-60.72 8.28zm84.18-8.28l-15.18 53.82 53.82 15.18 15.18-53.82zm398.82 8.28l60.72-8.28 8.28 60.72-60.72 8.28zm74.52-5.52l-2.76 60.72 60.72 2.76 2.76-60.72zM698.97 1932l-8.97 60.03 60.03 8.97 8.97-60.03zm70.38 3.45l-6.9 55.2 55.2 6.9 6.9-55.2zm196.65 0l65.55-3.45 3.45 65.55-65.55 3.45zm422.97-3.45l-8.97 60.03 60.03 8.97 8.97-60.03zm60.03 11.73l57.27-11.73 11.73 57.27-57.27 11.73zm141.45 5.52l48.3-13.8 13.8 48.3-48.3 13.8zm71.07-14.49l-2.76 60.72 60.72 2.76 2.76-60.72zm69 0l-2.76 60.72 60.72 2.76 2.76-60.72zm69 0l-2.76 60.72 60.72 2.76 2.76-60.72zm69 0l-2.76 60.72 60.72 2.76 2.76-60.72zm69 0l-2.76 60.72 60.72 2.76 2.76-60.72zm78.66-2.76l-15.18 53.82 53.82 15.18 15.18-53.82zm-1184.73 86.25l48.3-13.8 13.8 48.3-48.3 13.8zm71.07-14.49l-2.76 60.72 60.72 2.76 2.76-60.72zm69 0l-2.76 60.72 60.72 2.76 2.76-60.72zm73.83.69l-6.9 55.2 55.2 6.9 6.9-55.2zm196.65 0l65.55-3.45 3.45 65.55-65.55 3.45zm276 6.9l58.65-10.35 10.35 58.65-58.65 10.35zm143.52-7.59l-2.76 60.72 60.72 2.76 2.76-60.72zm201.48 4.14l62.1-6.9 6.9 62.1-62.1 6.9zm138 0l62.1-6.9 6.9 62.1-62.1 6.9zm-1307.55 79.35l48.3-13.8 13.8 48.3-48.3 13.8zm75.9-13.8l-6.9 55.2 55.2 6.9 6.9-55.2zm136.62-3.45l-8.97 60.03 60.03 8.97 8.97-60.03zm60.03 11.73l57.27-11.73 11.73 57.27-57.27 11.73zm276-4.83l62.1-6.9 6.9 62.1-62.1 6.9zm141.45 10.35l48.3-13.8 13.8 48.3-48.3 13.8zm75.9-13.8l-6.9 55.2 55.2 6.9 6.9-55.2zm131.1 13.8l48.3-13.8 13.8 48.3-48.3 13.8zm71.07-14.49l-2.76 60.72 60.72 2.76 2.76-60.72zm69 0l-2.76 60.72 60.72 2.76 2.76-60.72zm73.83.69l-6.9 55.2 55.2 6.9 6.9-55.2zm127.65 6.9l58.65-10.35 10.35 58.65-58.65 10.35zM146.97 138L138 198.03l60.03 8.97 8.97-60.03zM207 149.73L264.27 138 276 195.27 218.73 207zm69-4.83l62.1-6.9 6.9 62.1-69 6.9zm69 3.45L403.65 138 414 196.65 355.35 207zm69-2.07l60.72-8.28 8.28 60.72-60.72 8.28zm84.18-8.28L483 191.82 536.82 207 552 153.18zm64.17 3.45l-6.9 55.2 55.2 6.9 6.9-55.2zM138 217.35L196.65 207 207 265.65 148.35 276zm414-2.07l60.72-8.28 8.28 60.72-60.72 8.28zM153.18 276L138 329.82 191.82 345 207 291.18zm409.17 3.45l-6.9 55.2 55.2 6.9 6.9-55.2zM138 351.9l62.1-6.9 6.9 62.1-69 6.9zm414 3.45L610.65 345 621 403.65 562.35 414zm-414 66.93l60.72-8.28 8.28 60.72-60.72 8.28zM567.18 414L552 467.82 605.82 483 621 429.18zM138 493.35L196.65 483 207 541.65 148.35 552zm414-2.07l60.72-8.28 8.28 60.72-60.72 8.28zM146.97 552L138 612.03l60.03 8.97 8.97-60.03zM207 563.73L264.27 552 276 609.27 218.73 621zm69-4.83l62.1-6.9 6.9 62.1-69 6.9zm69 3.45L403.65 552 414 610.65 355.35 621zm69-2.07l60.72-8.28 8.28 60.72-60.72 8.28zm84.18-8.28L483 605.82 536.82 621 552 567.18zm64.17 3.45l-6.9 55.2 55.2 6.9 6.9-55.2zM2130.03 138l8.97 60.03-60.03 8.97-8.97-60.03zM2070 149.73L2012.73 138 2001 195.27l57.27 11.73zm-69-4.83l-62.1-6.9-6.9 62.1 69 6.9zm-69 3.45L1873.35 138 1863 196.65l58.65 10.35zm-69-2.07l-60.72-8.28-8.28 60.72 60.72 8.28zm-84.18-8.28l15.18 53.82-53.82 15.18-15.18-53.82zm-64.17 3.45l6.9 55.2-55.2 6.9-6.9-55.2zm424.35 75.9L2080.35 207 2070 265.65l58.65 10.35zm-414-2.07l-60.72-8.28-8.28 60.72 60.72 8.28zM2123.82 276l15.18 53.82-53.82 15.18-15.18-53.82zm-409.17 3.45l6.9 55.2-55.2 6.9-6.9-55.2zM2139 351.9l-62.1-6.9-6.9 62.1 69 6.9zm-414 3.45L1666.35 345 1656 403.65l58.65 10.35zm414 66.93l-60.72-8.28-8.28 60.72 60.72 8.28zM1709.82 414l15.18 53.82-53.82 15.18-15.18-53.82zM2139 493.35L2080.35 483 2070 541.65l58.65 10.35zm-414-2.07l-60.72-8.28-8.28 60.72 60.72 8.28zM2130.03 552l8.97 60.03-60.03 8.97-8.97-60.03zM2070 563.73L2012.73 552 2001 609.27l57.27 11.73zm-69-4.83l-62.1-6.9-6.9 62.1 69 6.9zm-69 3.45L1873.35 552 1863 610.65l58.65 10.35zm-69-2.07l-60.72-8.28-8.28 60.72 60.72 8.28zm-84.18-8.28l15.18 53.82-53.82 15.18-15.18-53.82zm-64.17 3.45l6.9 55.2-55.2 6.9-6.9-55.2zM146.97 2139l-8.97-60.03 60.03-8.97 8.97 60.03zm60.03-11.73l57.27 11.73 11.73-57.27-57.27-11.73zm69 4.83l62.1 6.9 6.9-62.1-69-6.9zm69-3.45l58.65 10.35 10.35-58.65-58.65-10.35zm69 2.07l60.72 8.28 8.28-60.72-60.72-8.28zm84.18 8.28L483 2085.18l53.82-15.18 15.18 53.82zm64.17-3.45l-6.9-55.2 55.2-6.9 6.9 55.2zM138 2059.65l58.65 10.35 10.35-58.65-58.65-10.35zm414 2.07l60.72 8.28 8.28-60.72-60.72-8.28zM153.18 2001L138 1947.18l53.82-15.18 15.18 53.82zm409.17-3.45l-6.9-55.2 55.2-6.9 6.9 55.2zM138 1925.1l62.1 6.9 6.9-62.1-69-6.9zm414-3.45l58.65 10.35 10.35-58.65-58.65-10.35zm-414-66.93l60.72 8.28 8.28-60.72-60.72-8.28zm429.18 8.28L552 1809.18l53.82-15.18 15.18 53.82zM138 1783.65l58.65 10.35 10.35-58.65-58.65-10.35zm414 2.07l60.72 8.28 8.28-60.72-60.72-8.28zM146.97 1725l-8.97-60.03 60.03-8.97 8.97 60.03zm60.03-11.73l57.27 11.73 11.73-57.27-57.27-11.73zm69 4.83l62.1 6.9 6.9-62.1-69-6.9zm69-3.45l58.65 10.35 10.35-58.65-58.65-10.35zm69 2.07l60.72 8.28 8.28-60.72-60.72-8.28zm84.18 8.28L483 1671.18l53.82-15.18 15.18 53.82zm64.17-3.45l-6.9-55.2 55.2-6.9 6.9 55.2zM276 276h207v207H276zm1518 0h207v207h-207zM276 1794h207v207H276z" fill="#fe0065"/></svg>